<svg width="284" height="313" viewBox="0 0 284 313" fill="none" xmlns="http://www.w3.org/2000/svg">
<path d="M119.464 185.391L115.465 288.721C115.465 288.721 83.8209 285.755 88.1862 303.55C92.5515 321.345 140.748 307.109 140.748 307.109L143.202 185.391H119.464Z" fill="#00B871" stroke="black" stroke-miterlimit="10"/>
<path d="M168.007 185.391L172.007 288.721C172.007 288.721 203.651 285.755 199.286 303.55C194.92 321.345 146.723 307.109 146.723 307.109L144.269 185.391H168.007Z" fill="#00B871" stroke="black" stroke-miterlimit="10"/>
<path d="M155.785 116.008C230.171 -37.8628 52.1316 -38.1314 133.78 115.975C52.1316 -38.1314 -59.0841 100.898 120.035 133.158C-59.0827 100.898 -19.7271 274.533 124.898 154.619C-19.7271 274.533 140.564 352.024 144.71 164.197C140.564 352.024 301.088 275.016 164.55 154.679C301.088 275.016 340.967 101.5 169.479 133.233C340.967 101.5 230.171 -37.8628 155.785 116.008Z" fill="#FF84EF" stroke="black" stroke-miterlimit="10"/>
<path d="M143.202 40.7764L146.001 92.9068" stroke="black" stroke-miterlimit="10"/>
<path d="M183.275 113.002L225.97 77.4954" stroke="black" stroke-miterlimit="10"/>
<path d="M193.902 152.324L249.261 168.85" stroke="black" stroke-miterlimit="10"/>
<path d="M171.985 188.335L194.378 242.951" stroke="black" stroke-miterlimit="10"/>
<path d="M115.487 190.798L95.465 242.951" stroke="black" stroke-miterlimit="10"/>
<path d="M36.3949 163.956L89.2533 153.819" stroke="black" stroke-miterlimit="10"/>
<path d="M62.8235 75.5245L105.476 107.34" stroke="black" stroke-miterlimit="10"/>
<path d="M141.816 197.86C170.845 197.86 194.378 174.327 194.378 145.297C194.378 116.268 170.845 92.7352 141.816 92.7352C112.786 92.7352 89.2533 116.268 89.2533 145.297C89.2533 174.327 112.786 197.86 141.816 197.86Z" fill="#FFCA00" stroke="black" stroke-miterlimit="10"/>
<path d="M131.241 141.882C131.46 143.678 132.556 145.57 132.556 147.394C132.544 149.708 130.713 151.369 130.147 153.52C130.108 153.683 130.069 153.847 130.043 154.024C128.097 153.193 125.802 152.717 123.341 152.717C120.88 152.717 118.572 153.193 116.626 154.024C115.981 154.297 115.376 154.609 114.821 154.964C114.808 154.474 114.756 153.998 114.627 153.52C114.047 151.369 112.23 149.708 112.218 147.394C112.218 145.57 113.314 143.678 113.532 141.882C113.751 139.99 113.314 138.655 112.759 136.873C111.509 132.776 112.359 130.679 114.176 126.977C115.348 124.609 114.858 122.906 114.356 120.402C113.298 115.243 115.734 108.573 121.69 108.722C125.853 108.832 128.959 111.962 130.106 115.583C130.609 117.162 130.738 118.837 130.415 120.402C129.913 122.908 129.423 124.609 130.583 126.977C132.412 130.679 133.263 132.776 132 136.873C131.46 138.655 131.009 139.99 131.241 141.882Z" fill="white" stroke="black" stroke-miterlimit="10"/>
<path d="M114.821 154.964C113.509 155.085 111.427 155.145 110.136 155.578C107.149 156.58 104.933 159.119 103.198 161.622" stroke="black" stroke-miterlimit="10"/>
<path d="M114.821 154.964C111.426 156.944 107.807 160.389 107.771 164.545" stroke="black" stroke-miterlimit="10"/>
<path d="M114.821 154.964C113.535 157.267 111.858 160.934 113.669 163.554" stroke="black" stroke-miterlimit="10"/>
<path d="M131.421 136.687C132.48 132.547 131.767 130.43 130.232 126.689C129.259 124.296 129.671 122.577 130.091 120.047C130.361 118.465 130.253 116.773 129.832 115.178C128.828 114.434 127.661 113.98 126.375 113.94C121.383 113.789 119.341 120.528 120.227 125.741C120.649 128.271 121.059 129.991 120.076 132.383C119.687 133.339 119.352 134.189 119.085 134.993L127.664 137.565L118.504 140.309C118.584 140.953 118.698 141.625 118.889 142.381C119.354 144.183 119.721 145.53 119.538 147.443C119.354 149.259 119.824 150.825 119.824 152.667C121.639 152.622 122.098 152.696 124.162 152.696C126.226 152.696 128.199 152.93 129.831 153.769L129.867 153.508C130.342 151.335 131.877 149.657 131.888 147.318C131.888 145.475 130.969 143.563 130.786 141.749C130.59 139.836 130.967 138.488 131.421 136.687Z" fill="black" stroke="black" stroke-miterlimit="10"/>
<path d="M168.198 142.331C168.328 144.138 169.329 146.081 169.239 147.902C169.112 150.212 167.202 151.782 166.529 153.902C166.482 154.063 166.436 154.225 166.402 154.4C164.499 153.474 162.23 152.886 159.772 152.764C157.313 152.643 154.986 153.005 153 153.739C152.343 153.978 151.723 154.262 151.151 154.587C151.162 154.097 151.134 153.618 151.029 153.137C150.556 150.96 148.823 149.211 148.924 146.899C149.014 145.077 150.202 143.241 150.509 141.458C150.822 139.578 150.449 138.225 149.984 136.417C148.938 132.262 149.891 130.211 151.889 126.603C153.177 124.296 152.772 122.571 152.394 120.045C151.593 114.84 154.355 108.299 160.295 108.742C164.448 109.056 167.396 112.336 168.363 116.009C168.787 117.611 168.834 119.29 168.434 120.837C167.808 123.314 167.235 124.989 168.276 127.413C169.922 131.201 170.668 133.336 169.203 137.367C168.576 139.12 168.06 140.43 168.198 142.331Z" fill="white" stroke="black" stroke-miterlimit="10"/>
<path d="M166.305 153.847C167.61 154.033 169.686 154.194 170.954 154.691C173.888 155.84 175.977 158.485 177.586 161.071" stroke="black" stroke-miterlimit="10"/>
<path d="M166.305 153.847C169.598 155.992 173.044 159.611 172.874 163.765" stroke="black" stroke-miterlimit="10"/>
<path d="M166.305 153.847C167.475 156.211 168.969 159.957 167.032 162.483" stroke="black" stroke-miterlimit="10"/>
<path d="M168.636 137.152C169.898 133.069 169.29 130.92 167.942 127.107C167.09 124.668 167.584 122.973 168.131 120.465C168.478 118.898 168.454 117.204 168.111 115.59C167.144 114.798 166.001 114.288 164.719 114.182C159.74 113.785 157.368 120.415 157.995 125.665C158.291 128.213 158.617 129.95 157.516 132.291C157.08 133.227 156.704 134.059 156.397 134.851L164.837 137.841L155.552 140.131C155.601 140.777 155.681 141.454 155.835 142.219C156.21 144.042 156.51 145.405 156.232 147.306C155.959 149.109 156.351 150.698 156.261 152.539C158.075 152.583 158.531 152.68 160.592 152.781C162.653 152.883 164.612 153.214 166.2 154.133L166.25 153.873C166.832 151.726 168.448 150.126 168.573 147.791C168.665 145.951 167.841 143.996 167.747 142.174C167.649 140.257 168.093 138.929 168.636 137.152Z" fill="black" stroke="black" stroke-miterlimit="10"/>
<path d="M144.228 149.634C144.228 151.222 142.939 152.511 141.351 152.511C139.762 152.511 138.473 151.222 138.473 149.634C138.473 148.045 139.762 146.756 141.351 146.756C142.939 146.756 144.228 148.045 144.228 149.634Z" fill="#00B871" stroke="black" stroke-miterlimit="10"/>
<path d="M162.347 163.163C162.619 167.142 151.562 172.307 141.351 172.309C131.131 172.31 120.08 167.139 120.354 163.163C120.631 159.15 132.433 156.427 141.132 156.384C150.101 156.342 162.07 159.12 162.347 163.163Z" fill="#FF5724" stroke="black" stroke-miterlimit="10"/>
<path d="M130.111 161.327C131.571 162.32 135.572 164.756 141.243 164.786C147.043 164.818 151.14 162.313 152.592 161.327" stroke="black" stroke-miterlimit="10"/>
</svg>
