<svg width="195" height="325" viewBox="0 0 195 325" fill="none" xmlns="http://www.w3.org/2000/svg">
<path d="M34.5445 276.558C43.2341 276.558 50.4891 274.042 56.2102 269.022C69.4999 257.366 67.7629 237.604 67.5209 235.39C66.9255 229.934 62.0194 225.984 56.5628 226.589C51.1217 227.182 47.1879 232.062 47.7574 237.499C48.0486 240.51 47.8118 249.997 43.0656 254.113C38.8871 257.736 31.232 256.842 25.5481 255.454C20.2134 254.153 14.8371 257.419 13.5365 262.752C12.235 268.085 15.5017 273.463 20.8338 274.763C25.7365 275.96 30.3107 276.558 34.5445 276.558Z" fill="#030500"/>
<path d="M-9.40986 298.154C-9.3511 298.154 -9.29145 298.142 -9.23614 298.118L-5.22623 296.355C-5.08969 296.295 -4.99376 296.168 -4.97215 296.02L0.599383 257.426C0.620124 257.285 0.568274 257.142 0.461977 257.045C0.381606 256.973 0.277902 256.933 0.171605 256.933C0.1379 256.933 0.103349 256.937 0.0696446 256.945C-0.104925 256.988 -4.23758 258.005 -7.05144 259.882C-10.0831 261.902 -13.45 283.807 -9.82812 297.83C-9.79615 297.952 -9.71233 298.055 -9.59825 298.111C-9.53862 298.139 -9.47468 298.154 -9.40986 298.154Z" fill="white"/>
<path d="M0.171559 257.364C0.171559 257.364 -4.02935 258.385 -6.81296 260.24C-9.59571 262.096 -13.0283 283.712 -9.41075 297.721L-5.40085 295.958L0.171559 257.364ZM0.171559 256.5C0.384154 256.5 0.591568 256.579 0.753174 256.725C0.965769 256.917 1.06773 257.203 1.02712 257.488L-4.54442 296.082C-4.58677 296.378 -4.77862 296.63 -5.05171 296.75L-9.06162 298.513C-9.17224 298.562 -9.29151 298.587 -9.40904 298.587C-9.53867 298.587 -9.66745 298.557 -9.78671 298.5C-10.0149 298.39 -10.1825 298.185 -10.2464 297.939C-11.8556 291.707 -12.2661 283.104 -11.3708 274.337C-10.7598 268.351 -9.32522 260.879 -7.29088 259.523C-4.41393 257.604 -0.208679 256.569 -0.0315167 256.526C0.0350273 256.508 0.104151 256.5 0.171559 256.5Z" fill="#030500"/>
<path d="M26.5894 324.14C27.9358 324.14 29.3203 324.079 30.7065 323.961C45.6089 322.685 50.7397 317.189 50.9505 316.955C51.005 316.894 51.0413 316.819 51.056 316.738C51.0776 316.608 51.5978 313.532 51.4976 312.028C51.3904 310.413 49.7744 308.779 49.7052 308.71C49.6637 308.669 49.6136 308.636 49.5583 308.614L17.7978 296.048L7.78598 254.617C7.73845 254.421 7.56475 254.286 7.36599 254.286C7.36167 254.286 7.35733 254.286 7.35214 254.286C2.5411 254.433 -1.213 256.917 -3.80648 261.672C-10.9034 274.685 -7.29271 301.201 -2.45487 309.239C3.24457 318.708 13.8311 324.14 26.5894 324.14Z" fill="white"/>
<path d="M7.36422 254.718C-12.8997 255.334 -8.16471 298.916 -2.08501 309.016C3.42863 318.176 13.6194 323.707 26.5877 323.707C27.9185 323.707 29.2805 323.648 30.6684 323.529C45.5743 322.255 50.629 316.665 50.629 316.665C50.629 316.665 51.164 313.527 51.0654 312.056C50.9678 310.585 49.3984 309.016 49.3984 309.016L17.4296 296.367L7.36422 254.718ZM7.36422 253.854C7.76176 253.854 8.11005 254.126 8.20424 254.515L18.1642 295.728L49.7164 308.212C49.8262 308.255 49.9264 308.321 50.0094 308.405C50.1935 308.589 51.8113 310.254 51.9279 311.999C52.0316 313.554 51.5036 316.679 51.4811 316.811C51.4535 316.973 51.38 317.124 51.2703 317.246C51.0542 317.484 45.8137 323.103 30.7419 324.392C29.3436 324.511 27.9462 324.572 26.5877 324.572C13.6755 324.572 2.95505 319.065 -2.82563 309.462C-7.70753 301.352 -11.3484 274.597 -4.18676 261.465C-1.5155 256.566 2.36219 254.005 7.33829 253.854C7.34694 253.854 7.35558 253.854 7.36422 253.854Z" fill="#030500"/>
<path d="M29.5303 319.112C37.7178 319.112 44.2918 316.567 48.0442 311.945C50.6351 308.754 51.603 304.81 50.769 300.84C48.6794 290.888 35.763 290.115 31.8533 290.115C31.5024 290.115 31.2241 290.121 31.034 290.127C30.366 288.705 27.1753 281.52 28.3014 276.19C28.3472 275.976 28.2236 275.761 28.0162 275.691C27.8606 275.638 24.2111 274.358 23.6839 270.031C23.1334 265.505 25.9352 255.671 25.9637 255.573C26.0225 255.368 25.9231 255.15 25.7286 255.061C25.5558 254.981 21.4076 253.113 14.8388 253.113C13.5079 253.113 12.1554 253.193 10.8185 253.347C1.43234 254.441 -3.41413 265.134 -3.94389 274.607C-3.9897 275.419 -4.05883 276.334 -4.13402 277.332C-4.95242 288.191 -6.65578 310.79 15.7419 317.052C20.6264 318.419 25.2654 319.112 29.5277 319.112H29.5303Z" fill="#FF3682"/>
<path d="M14.8397 253.546C13.5978 253.546 12.2695 253.614 10.8678 253.778C2.07362 254.802 -2.95435 264.647 -3.51263 274.632C-4.07091 284.617 -8.1586 309.922 15.8586 316.637C20.9228 318.054 25.4936 318.68 29.5277 318.68C44.6237 318.68 52.233 309.912 50.3465 300.93C48.3208 291.284 35.6688 290.548 31.8551 290.548C31.168 290.548 30.7687 290.572 30.7687 290.572C30.7687 290.572 26.5825 282.233 27.8788 276.102C27.8788 276.102 23.8231 274.751 23.2553 270.084C22.6875 265.418 25.5481 255.455 25.5481 255.455C25.5481 255.455 21.3886 253.546 14.8397 253.546ZM14.8388 252.682C21.501 252.682 25.7321 254.587 25.9084 254.669C26.2965 254.847 26.497 255.282 26.3786 255.693C26.35 255.79 23.5725 265.541 24.1126 269.98C24.6043 274.021 28.0102 275.233 28.1554 275.283C28.5685 275.425 28.8148 275.854 28.724 276.281C27.6809 281.215 30.4637 287.842 31.3071 289.69C31.4627 289.686 31.6459 289.685 31.8542 289.685C35.8451 289.685 49.0346 290.483 51.1917 300.752C52.0524 304.851 51.0543 308.924 48.3804 312.217C44.5442 316.942 37.8483 319.545 29.5269 319.545C25.2257 319.545 20.5486 318.846 15.6244 317.47C5.79575 314.721 -0.584702 308.56 -3.34152 299.155C-5.62476 291.364 -4.98782 282.901 -4.56522 277.301C-4.49004 276.307 -4.42177 275.395 -4.37597 274.584C-3.83584 264.936 1.1325 254.042 10.7675 252.92C12.1218 252.761 13.4915 252.682 14.8388 252.682Z" fill="#030500"/>
<path d="M38.0747 303.758C35.6843 292.376 18.4969 293.4 18.4969 293.4L14.8776 269.052C13.9797 263.013 9.50917 258.325 3.89701 256.93C5.85789 255.224 8.18694 254.09 10.8677 253.778C19.6627 252.754 25.5488 255.454 25.5488 255.454C25.5488 255.454 22.6875 265.417 23.2561 270.083C23.8248 274.75 27.8796 276.101 27.8796 276.101C26.5833 282.232 30.7695 290.571 30.7695 290.571C30.7695 290.571 47.9569 289.547 50.3473 300.929C52.2044 309.772 44.8509 318.404 30.2164 318.668C36.4914 315.364 39.3036 309.61 38.0747 303.758Z" fill="#BA1754"/>
<path d="M32.0028 281.088C32.3208 281.088 32.6241 281.078 32.9067 281.058C34.5107 280.943 35.7145 280.407 36.488 279.461C37.5743 278.135 37.3799 276.504 37.3712 276.436C37.3436 276.218 37.1578 276.058 36.9435 276.058C36.9244 276.058 36.9071 276.059 36.8881 276.061C36.5096 276.109 36.1199 276.133 35.7327 276.133C31.2025 276.133 26.1037 272.821 25.58 266.682C25.0338 260.279 28.3316 256.092 28.3653 256.051C28.4414 255.956 28.4742 255.833 28.4552 255.712C28.4362 255.591 28.367 255.484 28.2651 255.417C26.9083 254.531 25.5134 254.081 24.1229 254.081C22.1612 254.081 20.2988 255.012 18.8789 256.702C16.4851 259.551 15.5777 264.224 16.4479 269.204C18.0925 278.603 27.3404 281.087 32.0019 281.087C32.0028 281.088 32.0028 281.088 32.0028 281.088Z" fill="white"/>
<path d="M24.123 254.516C19.2229 254.516 15.385 260.622 16.874 269.132C18.4495 278.139 27.1771 280.657 32.002 280.657C32.3105 280.657 32.6035 280.647 32.8765 280.628C37.4309 280.303 36.9435 276.492 36.9435 276.492C36.5425 276.542 36.1389 276.567 35.7328 276.567C30.7878 276.567 25.676 272.884 25.1505 266.721C24.581 260.052 28.0292 255.782 28.0292 255.782C26.7053 254.917 25.3795 254.516 24.123 254.516ZM24.123 253.651C25.5991 253.651 27.0725 254.125 28.5019 255.058C28.7068 255.192 28.845 255.406 28.883 255.647C28.9211 255.888 28.8554 256.134 28.7016 256.324C28.6705 256.363 25.4807 260.432 26.0113 266.647C26.5134 272.528 31.3944 275.702 35.7328 275.702C36.1035 275.702 36.4743 275.678 36.8355 275.633C36.8718 275.629 36.9081 275.627 36.9435 275.627C37.3722 275.627 37.7438 275.945 37.7999 276.381C37.8095 276.457 38.0246 278.267 36.8216 279.736C35.9704 280.776 34.6629 281.366 32.937 281.489C32.6398 281.511 32.3243 281.521 32.0011 281.521C27.2151 281.521 17.7158 278.963 16.0219 269.281C15.1154 264.101 16.0366 259.416 18.548 256.426C20.0517 254.637 22.0316 253.651 24.123 253.651Z" fill="#030500"/>
<path d="M31.6624 290.108C31.6624 290.108 21.5823 290.857 14.6193 295.413" stroke="#030500" stroke-miterlimit="10" stroke-linecap="round" stroke-linejoin="round"/>
<path d="M29.4241 301.769C30.5717 302.617 31.6537 304.063 31.0591 305.36C30.7238 306.092 29.9504 306.511 29.2046 306.813C25.6025 308.277 21.4016 308.197 17.8584 306.596C16.3296 305.906 14.7714 304.695 14.6928 303.019C14.6219 301.515 15.843 300.189 17.2534 299.659C20.8926 298.292 26.3967 299.532 29.4241 301.769Z" fill="#FFBFE2"/>
<path d="M136.58 266.312C139.489 266.312 142.373 265.04 144.337 262.594C147.772 258.314 147.088 252.059 142.807 248.623L102.123 215.968C97.8433 212.532 91.5881 213.217 88.1521 217.498C84.716 221.779 85.4013 228.034 89.6817 231.47L130.366 264.125C132.2 265.596 134.398 266.312 136.58 266.312Z" fill="#030500"/>
<path d="M133.338 267.237C134.037 267.237 134.7 267.073 135.257 266.762C137.217 265.67 147.747 245.9 148.941 243.649C149.001 243.536 149.008 243.402 148.959 243.284C148.921 243.189 147.978 240.948 145.253 240.948C144.393 240.948 143.447 241.18 142.438 241.637C137.756 243.759 127.003 255.84 127.96 261.431C128.692 265.712 131.218 267.237 133.338 267.237Z" fill="white"/>
<path d="M145.253 241.381C144.523 241.381 143.651 241.561 142.616 242.03C138.085 244.084 127.466 255.978 128.386 261.358C129.078 265.399 131.412 266.805 133.338 266.805C133.978 266.805 134.572 266.65 135.047 266.386C136.952 265.323 148.559 243.447 148.559 243.447C148.559 243.447 147.718 241.381 145.253 241.381ZM145.252 240.516C148.265 240.516 149.316 243.014 149.36 243.12C149.456 243.357 149.443 243.625 149.322 243.851C146.572 249.037 137.442 266.039 135.467 267.14C134.846 267.486 134.11 267.669 133.337 267.669C131.041 267.669 128.31 266.049 127.533 261.504C126.527 255.625 137.36 243.463 142.258 241.244C143.324 240.761 144.331 240.516 145.252 240.516Z" fill="#030500"/>
<path d="M137.66 282.818C137.698 282.818 137.737 282.812 137.775 282.802C149.512 279.563 179.792 241.932 186.508 226.686C187.897 223.534 188.279 221.424 187.675 220.239C185.295 215.573 179.634 212.672 172.905 212.672C169.589 212.672 166.18 213.383 163.049 214.729C153.58 218.797 151.256 226.44 148.793 234.532L148.576 235.249C146.505 242.033 142.618 251.101 135.858 255.762C129.542 260.117 126.242 268.209 128.651 273.431C130.962 278.442 137.16 282.571 137.423 282.744C137.494 282.793 137.576 282.818 137.66 282.818Z" fill="#FF3682"/>
<path d="M172.905 213.105C169.74 213.105 166.404 213.759 163.219 215.127C153.661 219.234 151.537 227.021 148.988 235.375C146.438 243.729 142.262 251.871 136.103 256.119C129.943 260.366 126.757 268.296 129.043 273.252C131.329 278.208 137.66 282.385 137.66 282.385C150.912 278.728 190.9 227.516 187.29 220.436C184.883 215.717 179.235 213.105 172.905 213.105ZM172.905 212.241C179.798 212.241 185.605 215.231 188.06 220.044C188.735 221.37 188.368 223.536 186.903 226.861C180.161 242.165 149.711 279.957 137.89 283.219C137.814 283.239 137.737 283.25 137.66 283.25C137.492 283.25 137.326 283.201 137.184 283.107C136.917 282.931 130.62 278.735 128.258 273.615C125.767 268.213 129.134 259.875 135.612 255.408C142.27 250.817 146.111 241.843 148.161 235.124L148.379 234.407C150.871 226.217 153.224 218.481 162.877 214.333C166.063 212.965 169.53 212.241 172.905 212.241Z" fill="#030500"/>
<path d="M140.199 260.035C146.358 255.788 150.536 247.645 153.084 239.292C155.633 230.938 157.757 223.15 167.315 219.043C174.168 216.099 181.699 216.482 186.751 219.537C186.939 219.832 187.13 220.125 187.29 220.438C190.901 227.518 150.912 278.73 137.661 282.386C137.661 282.386 136.795 281.813 135.59 280.845C134.62 279.713 133.74 278.47 133.14 277.169C130.853 272.213 134.04 264.283 140.199 260.035Z" fill="#BA1754"/>
<path d="M140.765 287.009C145.635 287.009 170.724 266.582 175.631 258.623C180.889 250.093 190.999 226.779 191.1 226.545C191.12 226.499 191.132 226.45 191.134 226.4C191.144 226.243 191.339 222.557 188.974 220.308C188.773 220.117 188.569 219.913 188.359 219.702C186.85 218.192 184.971 216.312 181.602 216.312C179.901 216.312 178.035 216.787 175.897 217.763C168.782 221.009 164.285 231.699 160.318 241.131C157.775 247.176 155.373 252.887 152.641 255.812C149.97 258.672 147.45 260.803 145.225 262.684C141.593 265.756 138.456 268.409 136.4 272.839C132.888 280.405 138.057 285.02 140.004 286.757C140.191 286.924 140.447 287.009 140.765 287.009Z" fill="white"/>
<path d="M181.602 216.745C180.104 216.745 178.299 217.142 176.076 218.156C164.604 223.39 160.039 248.524 152.957 256.107C145.875 263.689 140.042 266.022 136.792 273.021C133.543 280.02 137.959 284.353 140.291 286.436C140.398 286.531 140.558 286.577 140.764 286.577C145.078 286.577 170.202 266.605 175.262 258.396C180.565 249.794 190.703 226.373 190.703 226.373C190.703 226.373 190.922 222.757 188.676 220.621C187.084 219.106 185.257 216.745 181.602 216.745ZM181.602 215.881C185.15 215.881 187.181 217.913 188.664 219.397C188.873 219.605 189.074 219.807 189.272 219.995C191.781 222.381 191.576 226.261 191.566 226.425C191.56 226.526 191.536 226.624 191.496 226.717C191.081 227.675 181.272 250.293 175.998 258.85C171.056 266.867 145.701 287.442 140.764 287.442C140.336 287.442 139.984 287.321 139.716 287.082C137.704 285.286 132.361 280.514 136.008 272.658C138.105 268.143 141.275 265.461 144.946 262.356C147.161 260.482 149.671 258.359 152.325 255.517C155.005 252.648 157.392 246.973 159.92 240.963C163.918 231.459 168.449 220.686 175.718 217.37C177.913 216.368 179.838 215.881 181.602 215.881Z" fill="#030500"/>
<path d="M144.722 288.81C150.451 288.81 157.977 285.791 163.449 281.299C172.648 273.745 202.131 241.583 192.493 224.235C192.451 224.122 190.865 220.378 185.634 220.378C184.017 220.378 182.209 220.748 180.259 221.475C172.118 224.516 165.501 240.701 162.322 248.479C161.811 249.728 161.389 250.761 161.064 251.486C158.747 256.655 152.956 263.67 147.594 267.803C144.84 269.926 136.008 277.449 138.027 285.11C138.655 287.496 141.033 288.81 144.722 288.81Z" fill="#030500"/>
<path d="M185.635 220.81C184.199 220.81 182.474 221.109 180.411 221.88C171.157 225.336 163.8 246.438 161.458 251.661C159.117 256.884 153.209 264.019 147.858 268.144C142.506 272.269 136.835 278.89 138.445 285C139.057 287.325 141.469 288.378 144.722 288.378C150.016 288.378 157.54 285.591 163.175 280.965C172.272 273.495 201.591 241.501 192.115 224.444C192.115 224.444 190.635 220.81 185.635 220.81ZM185.635 219.946C190.867 219.946 192.662 223.544 192.892 224.062C202.599 241.659 172.978 274.034 163.724 281.633C158.18 286.185 150.544 289.242 144.722 289.242C140.819 289.242 138.293 287.814 137.609 285.22C135.523 277.302 144.523 269.625 147.33 267.46C152.557 263.431 158.416 256.337 160.67 251.308C160.991 250.593 161.422 249.538 161.922 248.316C165.125 240.481 171.79 224.177 180.108 221.07C182.106 220.324 183.966 219.946 185.635 219.946Z" fill="#030500"/>
<path d="M148.726 291.243C154.4 291.243 163.617 288.208 175.313 273.749C175.395 273.647 175.427 273.514 175.4 273.386C175.372 273.259 175.289 273.151 175.173 273.091L158.106 264.464C158.045 264.432 157.978 264.417 157.911 264.417C157.822 264.417 157.734 264.445 157.658 264.499C156.902 265.044 139.169 277.925 139.15 286.821C139.112 287.006 139.075 287.439 139.386 287.977C140.134 289.273 142.312 290.281 145.857 290.972C146.782 291.152 147.747 291.243 148.726 291.243Z" fill="#030500"/>
<path d="M157.911 264.85C157.911 264.85 139.532 278.096 139.581 286.873C139.581 286.873 138.796 289.156 145.939 290.549C146.823 290.721 147.753 290.812 148.726 290.812C155.612 290.812 164.653 286.241 174.977 273.479L157.911 264.85ZM157.911 263.986C158.044 263.986 158.178 264.016 158.301 264.079L175.367 272.707C175.6 272.825 175.767 273.042 175.822 273.297C175.877 273.552 175.814 273.819 175.65 274.022C163.846 288.614 154.494 291.677 148.726 291.677C147.719 291.677 146.726 291.583 145.774 291.398C142.1 290.683 139.825 289.605 139.011 288.195C138.655 287.58 138.669 287.06 138.717 286.784C138.79 277.67 156.643 264.7 157.405 264.151C157.556 264.04 157.733 263.986 157.911 263.986Z" fill="#030500"/>
<path d="M174.978 273.477L174.5 269.531L156.255 259.74L157.911 264.85L174.734 273.776" fill="white"/>
<path d="M174.978 273.477L174.5 269.531L156.255 259.74L157.911 264.85L174.734 273.776" stroke="#030500" stroke-miterlimit="10" stroke-linecap="round" stroke-linejoin="round"/>
<path d="M97.7741 95.5387C97.8147 95.5387 97.8553 95.5326 97.8951 95.5214C98.0057 95.4894 98.0981 95.4142 98.1526 95.314L133.39 30.979C133.454 30.8623 133.461 30.724 133.409 30.6013C133.356 30.4794 133.251 30.3878 133.124 30.3533L103.153 22.3058C103.116 22.2963 103.079 22.2911 103.041 22.2911C103.017 22.2911 102.993 22.2937 102.97 22.2971L-2.21295 39.7826C-2.39444 39.8129 -2.53702 39.9546 -2.56813 40.1361C-2.59837 40.3176 -2.51196 40.4991 -2.35036 40.5872L97.5658 95.4834C97.6306 95.5205 97.7023 95.5387 97.7741 95.5387Z" fill="#A8D8FF"/>
<path d="M103.041 22.7249L-2.14204 40.2104L97.7741 95.1066L133.011 30.7716L103.041 22.7249ZM103.041 21.8607C103.117 21.8607 103.192 21.8702 103.265 21.8901L133.236 29.9376C133.492 30.0067 133.703 30.1891 133.806 30.4328C133.911 30.6765 133.897 30.9548 133.77 31.1872L98.5329 95.5223C98.4223 95.7236 98.2373 95.8723 98.017 95.9371C97.9375 95.9604 97.8562 95.9717 97.775 95.9717C97.6307 95.9717 97.4872 95.9353 97.3584 95.8645L-2.55771 40.9683C-2.88007 40.7912 -3.0555 40.4291 -2.99327 40.0661C-2.93105 39.7031 -2.64673 39.4188 -2.2829 39.3592L102.9 21.872C102.946 21.8642 102.994 21.8607 103.041 21.8607Z" fill="#030500"/>
<path d="M9.49356 256.804C9.6327 256.788 9.75627 256.706 9.82368 256.582L98.1534 95.3149C98.2684 95.1057 98.1914 94.8439 97.9823 94.7289L-1.933 39.8319C-1.99695 39.7965 -2.06868 39.7783 -2.14127 39.7783C-2.1646 39.7783 -2.1888 39.7809 -2.21214 39.7844L-2.51374 39.8345C-2.72115 39.8691 -2.87325 40.0471 -2.87498 40.2571L-4.49365 241.244C-4.49452 241.351 -4.45562 241.455 -4.38389 241.535L9.1228 256.662C9.20576 256.755 9.32331 256.807 9.44517 256.807C9.46072 256.807 9.478 256.806 9.49356 256.804Z" fill="#115BDB"/>
<path d="M-2.14201 40.2104L-2.44362 40.2605L-4.06226 241.247L9.44442 256.375L97.7742 95.1066L-2.14201 40.2104ZM-2.14201 39.3462C-1.99683 39.3462 -1.85423 39.3825 -1.72547 39.4534L98.1907 94.3495C98.609 94.5794 98.7619 95.104 98.5329 95.5222L10.2041 256.789C10.0692 257.036 9.82294 257.201 9.54467 257.233C9.51183 257.236 9.47897 257.239 9.44614 257.239C9.20157 257.239 8.9665 257.135 8.80144 256.95L-4.70525 241.823C-4.84785 241.663 -4.92649 241.455 -4.92476 241.241L-3.30608 40.2536C-3.30263 39.8336 -2.99757 39.4767 -2.58361 39.4084L-2.28201 39.3583C-2.2362 39.3505 -2.18868 39.3462 -2.14201 39.3462Z" fill="#030500"/>
<path d="M9.4453 256.807C9.49197 256.807 9.53777 256.799 9.5827 256.784L130.813 216.134C130.986 216.076 131.105 215.913 131.107 215.729L133.444 30.7776C133.446 30.6506 133.391 30.5287 133.296 30.4458C133.216 30.3775 133.116 30.3403 133.012 30.3403C132.99 30.3403 132.967 30.3421 132.945 30.3455L14.1526 48.9692C13.9461 49.002 13.7923 49.1775 13.7871 49.3857L9.0132 256.364C9.00974 256.505 9.07539 256.638 9.18861 256.722C9.26379 256.778 9.35369 256.807 9.4453 256.807Z" fill="#1493FE"/>
<path d="M133.012 30.7716L14.2191 49.3952L9.44527 256.374L130.675 215.723L133.012 30.7716ZM133.012 29.9073C133.219 29.9073 133.42 29.9817 133.578 30.1182C133.771 30.285 133.88 30.5278 133.876 30.7828L131.54 215.734C131.534 216.102 131.298 216.426 130.95 216.542L9.72009 257.193C9.63021 257.223 9.53775 257.238 9.44527 257.238C9.26293 257.238 9.08316 257.18 8.93279 257.069C8.70637 256.903 8.575 256.636 8.58192 256.354L13.3549 49.3753C13.3644 48.9571 13.6721 48.6062 14.0852 48.5414L132.877 29.9177C132.922 29.9108 132.967 29.9073 133.012 29.9073Z" fill="#030500"/>
<path d="M13.9435 49.1255L-2.78755 40.0747" stroke="#030500" stroke-miterlimit="10" stroke-linecap="round" stroke-linejoin="round"/>
<path d="M24.581 242.36C25.3008 242.36 26.0199 242.247 26.7199 242.025L120.862 212.153C123.763 211.234 125.733 208.571 125.766 205.528L127.44 50.2076C127.46 48.3158 126.741 46.5338 125.411 45.1917C124.077 43.8427 122.305 43.1003 120.424 43.1003C120.016 43.1003 119.602 43.1366 119.196 43.2075L106.252 45.4769C106.102 45.5028 105.978 45.6057 105.924 45.7474C105.88 45.8632 101.428 57.3226 97.1432 59.0363C92.7954 60.776 62.696 67.3578 57.9748 67.3578C57.687 67.3578 57.5729 67.3344 57.5375 67.3241C56.6249 67.0639 54.7003 65.0322 52.838 63.0678C49.7579 59.8184 46.5724 56.4592 44.3255 56.4592C44.2132 56.4592 44.1034 56.4679 43.9962 56.4843C41.6707 56.8516 32.4236 58.9516 27.1191 60.171C23.989 60.89 21.7481 63.6374 21.6694 66.8505L17.5653 235.154C17.5187 237.065 18.2247 238.867 19.553 240.227C20.8752 241.583 22.7082 242.36 24.581 242.36Z" fill="#A8D8FF"/>
<path d="M120.424 43.5316C120.045 43.5316 119.659 43.5644 119.27 43.6327L106.326 45.9021C106.326 45.9021 101.814 57.6328 97.3023 59.4373C93.0046 61.1562 62.9915 67.7899 57.9739 67.7899C57.7242 67.7899 57.5375 67.7734 57.4174 67.7389C54.9535 67.0345 47.8549 56.8905 44.3246 56.8905C44.2348 56.8905 44.1475 56.8974 44.0628 56.9103C41.7891 57.269 32.9266 59.2783 27.2151 60.5919C24.2768 61.2668 22.175 63.8473 22.1007 66.8608L17.9966 235.164C17.9033 238.988 21.0118 241.928 24.581 241.928C25.2404 241.928 25.9153 241.828 26.5885 241.615L120.732 211.743C123.448 210.881 125.303 208.373 125.335 205.525L127.009 50.2041C127.048 46.469 124.013 43.5316 120.424 43.5316ZM120.423 42.6674C122.422 42.6674 124.303 43.4555 125.719 44.8875C127.13 46.3126 127.893 48.2035 127.872 50.2128L126.198 205.533C126.163 208.763 124.071 211.589 120.993 212.566L26.8495 242.438C26.108 242.673 25.3449 242.793 24.5801 242.793C22.5916 242.793 20.6463 241.967 19.2419 240.529C17.8315 239.084 17.0822 237.172 17.1315 235.144L21.2356 66.8401C21.3186 63.4291 23.6978 60.5141 27.0198 59.7501C33.5065 58.2594 41.7052 56.4082 43.9271 56.0574C44.055 56.0375 44.189 56.0271 44.3238 56.0271C46.7565 56.0271 50.0059 59.4546 53.1482 62.7697C54.8861 64.6027 56.8557 66.6802 57.6542 66.9084C57.6542 66.9084 57.7371 66.9256 57.9731 66.9256C62.6726 66.9256 92.6485 60.368 96.9799 58.6353C100.391 57.2707 104.3 48.7574 105.518 45.5918C105.627 45.3084 105.877 45.1036 106.176 45.0508L119.12 42.7814C119.553 42.7054 119.991 42.6674 120.423 42.6674Z" fill="#030500"/>
<path d="M24.581 242.36C25.3009 242.36 26.0199 242.247 26.7199 242.025L120.862 212.153C123.763 211.234 125.733 208.571 125.766 205.528L126.744 114.794C126.745 114.677 126.699 114.564 126.615 114.482C126.534 114.403 126.425 114.358 126.312 114.358C126.309 114.358 126.305 114.358 126.302 114.358C115.365 114.62 103.311 124.436 97.9764 133.773C87.0407 153.821 74.6765 163.982 61.2226 163.982C57.8885 163.982 54.4368 163.349 50.9661 162.098C47.6217 160.872 44.1553 159.514 40.8031 158.201C34.0847 155.57 27.1374 152.849 20.1693 150.764C20.1287 150.752 20.0863 150.746 20.0448 150.746C19.9549 150.746 19.8659 150.774 19.7907 150.828C19.6818 150.908 19.6162 151.033 19.6127 151.168L17.5645 235.153C17.5179 237.064 18.2239 238.866 19.5522 240.226C20.8753 241.583 22.7074 242.36 24.581 242.36Z" fill="#039E63"/>
<path d="M126.312 114.79C115.23 115.056 103.373 125.2 98.3515 133.987C89.7267 149.8 77.5172 164.415 61.2226 164.415C57.9248 164.415 54.4567 163.815 50.8201 162.506C40.8627 158.855 30.5225 154.313 20.0448 151.179L17.9967 235.163C17.9033 238.988 21.0119 241.928 24.581 241.928C25.2404 241.928 25.9154 241.827 26.5886 241.614L120.732 211.742C123.448 210.88 125.304 208.372 125.335 205.524L126.312 114.79ZM126.312 113.926C126.538 113.926 126.757 114.015 126.919 114.174C127.086 114.34 127.178 114.564 127.176 114.799L126.198 205.532C126.163 208.762 124.071 211.588 120.993 212.565L26.8496 242.437C26.1081 242.673 25.345 242.792 24.5802 242.792C22.5917 242.792 20.6463 241.966 19.242 240.528C17.8316 239.083 17.0823 237.171 17.1316 235.143L19.1797 151.158C19.1867 150.889 19.318 150.638 19.5358 150.48C19.6853 150.372 19.8634 150.315 20.0431 150.315C20.1261 150.315 20.2099 150.327 20.2911 150.351C27.2774 152.442 34.2343 155.166 40.9621 157.801C44.3109 159.113 47.7746 160.47 51.1157 161.695C54.5345 162.925 57.936 163.551 61.2208 163.551C74.5046 163.551 86.7409 153.465 97.591 133.574C102.995 124.118 115.201 114.193 126.29 113.926C126.298 113.926 126.305 113.926 126.312 113.926Z" fill="#030500"/>
<path d="M95.8936 78.5475C96.0474 78.5475 96.2056 78.5337 96.3655 78.506L117.463 74.8219C117.641 74.7908 117.819 74.7407 117.997 74.6733C118.231 74.6707 118.416 74.6551 118.605 74.6223C120.754 74.2464 122.484 72.0495 122.459 69.7257C122.438 67.611 120.957 66.0174 119.016 66.0174C118.891 66.0174 118.764 66.0243 118.634 66.0373C118.253 64.6459 117.234 63.6278 115.916 63.3254C115.537 60.4839 113.387 58.4556 110.694 58.4556C110.37 58.4556 110.039 58.4849 109.71 58.542C107.235 58.9749 105.034 60.9929 104.138 63.6157C104.052 63.6114 103.964 63.6088 103.877 63.6088C103.603 63.6088 103.327 63.633 103.054 63.6806C100.448 64.136 98.2754 66.6266 97.9565 69.4448C97.9262 69.4483 97.8969 69.4535 97.8666 69.4586C96.623 69.6756 95.6594 70.895 95.6733 72.2328C95.6741 72.2613 95.6741 72.2889 95.6758 72.3166C94.3121 72.8031 93.3027 74.2515 93.3192 75.789C93.3347 77.3618 94.4426 78.5475 95.8936 78.5475Z" fill="white"/>
<path d="M110.695 58.8885C110.398 58.8885 110.094 58.9144 109.785 58.9689C107.292 59.4044 105.196 61.5174 104.446 64.0789C104.26 64.0547 104.071 64.0418 103.877 64.0418C103.633 64.0418 103.384 64.0625 103.129 64.1066C100.565 64.5542 98.494 67.0916 98.3557 69.8648C98.3134 69.8613 98.271 69.8605 98.2287 69.8605C98.1354 69.8605 98.0394 69.8683 97.9418 69.8855C96.9168 70.0644 96.095 71.1144 96.1062 72.2301C96.1079 72.3701 96.1218 72.5049 96.1485 72.632C94.8082 72.9172 93.7365 74.3137 93.7521 75.7855C93.7659 77.1423 94.6984 78.1162 95.8953 78.1162C96.025 78.1162 96.1581 78.105 96.2929 78.0817L117.39 74.3967C117.571 74.3656 117.747 74.312 117.916 74.2429C117.938 74.2429 117.959 74.2437 117.98 74.2437C118.161 74.2437 118.345 74.2308 118.532 74.1979C120.485 73.8566 122.051 71.8577 122.029 69.7317C122.009 67.8158 120.706 66.4512 119.019 66.4512C118.835 66.4512 118.646 66.4676 118.454 66.5013C118.404 66.5099 118.355 66.5246 118.305 66.535C118.036 64.9803 116.942 63.8819 115.523 63.6952C115.287 60.8623 113.27 58.8885 110.695 58.8885ZM110.695 58.0243C113.518 58.0243 115.79 60.0733 116.301 62.9814C117.531 63.3608 118.493 64.3097 118.946 65.5861C118.97 65.5861 118.994 65.5852 119.017 65.5852C121.202 65.5852 122.868 67.3629 122.892 69.7213C122.919 72.2906 121.068 74.63 118.68 75.0474C118.483 75.082 118.284 75.101 118.074 75.1053C117.896 75.1684 117.716 75.216 117.537 75.2471L96.4398 78.9321C96.2583 78.964 96.0742 78.9796 95.8936 78.9796C94.1972 78.9796 92.9043 77.6098 92.8862 75.7933C92.8697 74.1858 93.8619 72.6631 95.2454 72.0262C95.3232 70.6469 96.2963 69.4163 97.5676 69.0818C98.0213 66.1738 100.241 63.7332 102.979 63.2545C103.263 63.2052 103.551 63.1784 103.838 63.1767C104.846 60.5547 107.104 58.5584 109.635 58.1168C109.99 58.0554 110.346 58.0243 110.695 58.0243Z" fill="#030500"/>
<path d="M101.927 95.5775C102.314 95.5775 102.714 95.5188 103.116 95.403L116.813 91.4596C119.133 90.7924 121.02 88.3571 121.02 86.0306V72.333C121.02 70.3539 119.681 68.9712 117.764 68.9712C117.377 68.9712 116.977 69.03 116.575 69.1458L102.877 73.0891C100.558 73.7563 98.6711 76.1925 98.6711 78.5181V92.2158C98.6711 94.1957 100.01 95.5775 101.927 95.5775Z" fill="#115BDB"/>
<path d="M117.764 69.4041C117.424 69.4041 117.065 69.4551 116.694 69.5614L102.997 73.5048C100.855 74.121 99.1033 76.3774 99.1033 78.5189V92.2166C99.1033 93.9874 100.301 95.1463 101.927 95.1463C102.267 95.1463 102.626 95.0953 102.997 94.989L116.694 91.0456C118.836 90.4294 120.587 88.173 120.587 86.0315V72.3338C120.587 70.563 119.389 69.4041 117.764 69.4041ZM117.763 68.5399C117.764 68.5399 117.764 68.5399 117.763 68.5399C119.9 68.5399 121.451 70.1352 121.451 72.3338V86.0315C121.451 88.5368 119.424 91.1588 116.933 91.8761L103.235 95.8195C102.794 95.9465 102.354 96.0105 101.926 96.0105C99.7895 96.0105 98.2382 94.4151 98.2382 92.2166V78.5189C98.2382 76.0136 100.265 73.3916 102.756 72.6743L116.454 68.7309C116.896 68.6039 117.336 68.5399 117.763 68.5399Z" fill="#030500"/>
<path d="M101.926 130.442C102.313 130.442 102.713 130.384 103.115 130.268L116.813 126.324C119.132 125.657 121.019 123.221 121.019 120.895V107.198C121.019 105.219 119.68 103.835 117.763 103.835C117.376 103.835 116.976 103.894 116.573 104.01L102.876 107.953C100.556 108.62 98.6694 111.056 98.6694 113.382V127.08C98.6712 129.06 100.01 130.442 101.926 130.442Z" fill="#115BDB"/>
<path d="M117.764 104.268C117.424 104.268 117.065 104.319 116.694 104.425L102.997 108.369C100.855 108.985 99.1033 111.241 99.1033 113.383V127.08C99.1033 128.851 100.301 130.01 101.927 130.01C102.267 130.01 102.626 129.959 102.997 129.853L116.694 125.909C118.836 125.293 120.587 123.037 120.587 120.895V107.198C120.587 105.428 119.389 104.268 117.764 104.268ZM117.763 103.404C119.9 103.404 121.451 104.999 121.451 107.198V120.895C121.451 123.401 119.424 126.023 116.933 126.74L103.235 130.683C102.794 130.81 102.354 130.874 101.926 130.874C99.7895 130.874 98.2382 129.279 98.2382 127.08V113.383C98.2382 110.877 100.265 108.255 102.756 107.538L116.454 103.595C116.896 103.469 117.336 103.404 117.763 103.404Z" fill="#030500"/>
<path d="M101.927 165.307C102.314 165.307 102.714 165.248 103.116 165.132L116.813 161.188C119.133 160.521 121.02 158.086 121.02 155.759V142.062C121.02 140.083 119.681 138.7 117.764 138.7C117.377 138.7 116.977 138.759 116.574 138.874L102.876 142.818C100.557 143.486 98.6703 145.921 98.6703 148.247V161.944C98.6711 163.923 100.01 165.307 101.927 165.307Z" fill="#FFBFE2"/>
<path d="M117.764 139.132C117.424 139.132 117.065 139.183 116.694 139.289L102.997 143.233C100.855 143.849 99.1033 146.105 99.1033 148.247V161.944C99.1033 163.715 100.301 164.874 101.927 164.874C102.267 164.874 102.626 164.823 102.997 164.717L116.694 160.773C118.836 160.157 120.587 157.901 120.587 155.759V142.062C120.587 140.292 119.389 139.132 117.764 139.132ZM117.763 138.268C119.9 138.268 121.451 139.863 121.451 142.062V155.759C121.451 158.265 119.424 160.887 116.933 161.604L103.235 165.547C102.794 165.674 102.354 165.738 101.926 165.738C99.7895 165.738 98.2382 164.143 98.2382 161.944V148.247C98.2382 145.741 100.265 143.119 102.756 142.402L116.454 138.459C116.896 138.333 117.336 138.268 117.763 138.268Z" fill="#030500"/>
<path d="M101.927 200.171C102.314 200.171 102.714 200.112 103.116 199.996L116.813 196.053C119.133 195.385 121.02 192.95 121.02 190.624V176.926C121.02 174.947 119.681 173.564 117.764 173.564C117.377 173.564 116.977 173.622 116.575 173.738L102.877 177.682C100.558 178.349 98.6711 180.784 98.6711 183.11V196.808C98.6711 198.787 100.01 200.171 101.927 200.171Z" fill="#115BDB"/>
<path d="M117.764 173.997C117.424 173.997 117.065 174.048 116.694 174.154L102.997 178.097C100.855 178.713 99.1033 180.97 99.1033 183.111V196.809C99.1033 198.58 100.301 199.739 101.927 199.739C102.267 199.739 102.626 199.688 102.997 199.581L116.694 195.638C118.836 195.022 120.587 192.765 120.587 190.624V176.926C120.587 175.155 119.389 173.997 117.764 173.997ZM117.763 173.132C117.764 173.132 117.764 173.132 117.763 173.132C119.9 173.132 121.451 174.728 121.451 176.926V190.624C121.451 193.129 119.424 195.751 116.933 196.468L103.235 200.412C102.794 200.539 102.354 200.603 101.926 200.603C99.7895 200.603 98.2382 199.008 98.2382 196.809V183.111C98.2382 180.606 100.265 177.984 102.756 177.267L116.454 173.323C116.896 173.196 117.336 173.132 117.763 173.132Z" fill="#030500"/>
<path d="M69.4515 140.935C69.8387 140.935 70.2388 140.877 70.6407 140.761L84.3383 136.818C86.6579 136.15 88.5444 133.714 88.5444 131.389V117.691C88.5444 115.711 87.2058 114.328 85.289 114.328C84.9018 114.328 84.5017 114.387 84.0998 114.503L70.4021 118.446C68.0826 119.113 66.196 121.549 66.196 123.875V137.573C66.1969 139.553 67.5347 140.935 69.4515 140.935Z" fill="#FBC73F"/>
<path d="M85.289 114.761C84.9485 114.761 84.5898 114.812 84.2191 114.918L70.5214 118.862C68.3799 119.478 66.6282 121.734 66.6282 123.876V137.574C66.6282 139.344 67.826 140.503 69.4515 140.503C69.792 140.503 70.1507 140.452 70.5214 140.346L84.2191 136.403C86.3606 135.786 88.1124 133.53 88.1124 131.389V117.691C88.1124 115.921 86.9146 114.761 85.289 114.761ZM85.289 113.897C87.4253 113.897 88.9766 115.492 88.9766 117.691V131.389C88.9766 133.894 86.95 136.516 84.4585 137.233L70.7608 141.177C70.3201 141.304 69.8793 141.368 69.4515 141.368C67.3152 141.368 65.764 139.772 65.764 137.574V123.876C65.764 121.371 67.7905 118.749 70.282 118.031L83.9797 114.088C84.4213 113.962 84.8612 113.897 85.289 113.897Z" fill="#030500"/>
<path d="M69.4524 175.799C69.8395 175.799 70.2396 175.741 70.6415 175.625L84.3392 171.681C86.6587 171.014 88.5453 168.579 88.5453 166.252V152.555C88.5453 150.575 87.2066 149.193 85.2898 149.193C84.9027 149.193 84.5025 149.252 84.0998 149.368L70.4021 153.311C68.0826 153.979 66.196 156.414 66.196 158.74V172.438C66.1969 174.417 67.5347 175.799 69.4524 175.799Z" fill="#FF3682"/>
<path d="M85.289 149.626C84.9485 149.626 84.5898 149.677 84.2191 149.783L70.5214 153.727C68.3799 154.343 66.6282 156.599 66.6282 158.741V172.438C66.6282 174.209 67.826 175.368 69.4515 175.368C69.792 175.368 70.1507 175.317 70.5214 175.211L84.2191 171.267C86.3606 170.651 88.1124 168.395 88.1124 166.253V152.556C88.1124 150.785 86.9146 149.626 85.289 149.626ZM85.289 148.762C87.4253 148.762 88.9766 150.357 88.9766 152.556V166.253C88.9766 168.759 86.95 171.381 84.4585 172.098L70.7608 176.041C70.3201 176.168 69.8793 176.232 69.4515 176.232C67.3152 176.232 65.764 174.637 65.764 172.438V158.741C65.764 156.235 67.7905 153.613 70.282 152.896L83.9797 148.953C84.4213 148.826 84.8612 148.762 85.289 148.762Z" fill="#030500"/>
<path d="M69.4524 210.664C69.8395 210.664 70.2396 210.605 70.6415 210.489L84.3392 206.546C86.6587 205.878 88.5453 203.442 88.5453 201.117V187.419C88.5453 185.44 87.2066 184.056 85.2898 184.056C84.9027 184.056 84.5025 184.115 84.1007 184.231L70.403 188.175C68.0834 188.842 66.1969 191.277 66.1969 193.603V207.301C66.1969 209.281 67.5347 210.664 69.4524 210.664Z" fill="white"/>
<path d="M85.289 184.49C84.9485 184.49 84.5898 184.541 84.2191 184.647L70.5214 188.59C68.3799 189.207 66.6282 191.463 66.6282 193.604V207.302C66.6282 209.073 67.826 210.232 69.4515 210.232C69.792 210.232 70.1507 210.181 70.5214 210.075L84.2191 206.131C86.3606 205.515 88.1124 203.259 88.1124 201.117V187.419C88.1124 185.649 86.9146 184.49 85.289 184.49ZM85.289 183.625C87.4253 183.625 88.9766 185.221 88.9766 187.419V201.117C88.9766 203.622 86.95 206.244 84.4585 206.962L70.7608 210.905C70.3201 211.032 69.8793 211.096 69.4515 211.096C67.3152 211.096 65.764 209.501 65.764 207.302V193.604C65.764 191.099 67.7905 188.477 70.282 187.76L83.9797 183.816C84.4213 183.689 84.8612 183.625 85.289 183.625Z" fill="#030500"/>
<path d="M36.9763 186.292C37.3634 186.292 37.7644 186.234 38.1672 186.118L51.8648 182.174C54.1835 181.507 56.0701 179.072 56.0701 176.746V163.048C56.0701 161.069 54.7314 159.685 52.8146 159.685C52.4274 159.685 52.0273 159.744 51.6246 159.86L37.9269 163.803C35.6074 164.471 33.7217 166.907 33.7217 169.232V182.93C33.7217 184.911 35.0603 186.292 36.9763 186.292Z" fill="#04E892"/>
<path d="M52.8146 160.119C52.4741 160.119 52.1155 160.17 51.7447 160.276L38.047 164.22C35.9055 164.836 34.1538 167.092 34.1538 169.234V182.932C34.1538 184.702 35.3516 185.861 36.9772 185.861C37.3177 185.861 37.6763 185.81 38.047 185.704L51.7447 181.761C53.8862 181.144 55.638 178.888 55.638 176.746V163.049C55.638 161.278 54.4402 160.119 52.8146 160.119ZM52.8146 159.255C54.9509 159.255 56.5022 160.85 56.5022 163.049V176.746C56.5022 179.252 54.4756 181.874 51.9841 182.591L38.2864 186.534C37.8457 186.661 37.405 186.725 36.9772 186.725C34.8409 186.725 33.2896 185.13 33.2896 182.932V169.234C33.2896 166.729 35.3162 164.107 37.8077 163.389L51.5053 159.446C51.947 159.319 52.3868 159.255 52.8146 159.255Z" fill="#030500"/>
<path d="M36.9772 221.157C37.3643 221.157 37.7644 221.098 38.1672 220.983L51.8648 217.039C54.1835 216.372 56.0701 213.937 56.0701 211.61V197.913C56.0701 195.934 54.7314 194.55 52.8146 194.55C52.4274 194.55 52.0273 194.609 51.6246 194.724L37.9269 198.668C35.6082 199.335 33.7217 201.77 33.7217 204.097V217.795C33.7217 219.774 35.0603 221.157 36.9772 221.157Z" fill="#F780C2"/>
<path d="M52.8146 194.983C52.4741 194.983 52.1155 195.034 51.7447 195.14L38.047 199.084C35.9055 199.7 34.1538 201.956 34.1538 204.098V217.795C34.1538 219.566 35.3516 220.725 36.9772 220.725C37.3177 220.725 37.6763 220.674 38.047 220.568L51.7447 216.624C53.8862 216.008 55.638 213.752 55.638 211.61V197.913C55.638 196.143 54.4402 194.983 52.8146 194.983ZM52.8146 194.119C54.9509 194.119 56.5022 195.714 56.5022 197.913V211.61C56.5022 214.116 54.4756 216.738 51.9841 217.455L38.2864 221.398C37.8457 221.525 37.405 221.589 36.9772 221.589C34.8409 221.589 33.2896 219.994 33.2896 217.795V204.098C33.2896 201.592 35.3162 198.97 37.8077 198.253L51.5053 194.31C51.947 194.183 52.3868 194.119 52.8146 194.119Z" fill="#030500"/>
<path d="M7.2753 100.786C7.31505 100.786 7.35394 100.781 7.39111 100.771C8.88359 100.709 9.87744 99.5927 9.87744 97.9593V72.0383C9.87744 69.8043 8.0721 67.1374 5.85282 66.0925C5.38787 65.873 4.91429 65.7373 4.44503 65.6881C4.40441 65.6751 4.36206 65.6682 4.31799 65.6682H1.09103C0.970904 65.6682 0.855967 65.7183 0.774732 65.8056C0.693496 65.8938 0.651154 66.0113 0.659796 66.1306L1.46005 77.4906L1.45918 94.404C1.45918 95.6078 1.98982 96.9836 2.91884 98.1961L3.07353 100.383C3.08995 100.61 3.27747 100.785 3.50476 100.785H7.2753V100.786Z" fill="#FFA12E"/>
<path d="M4.19875 66.0977C4.16072 66.0977 4.12271 66.0995 4.08468 66.0995C4.08382 66.0995 4.08294 66.0995 4.08207 66.0995H1.09021L1.89046 77.4603V94.404C1.89046 95.6009 2.46514 96.93 3.34058 98.0354L3.50394 100.354H7.27445L7.27361 100.341C8.55091 100.334 9.44536 99.4613 9.44536 97.9593V72.0383C9.44536 69.9607 7.74547 67.4615 5.66791 66.484C5.19173 66.2593 4.73888 66.1453 4.31801 66.1107L4.31714 66.1012H4.25664C4.23763 66.0986 4.21776 66.0977 4.19875 66.0977ZM1.09021 66.0995H1.08589H1.09021ZM4.19875 65.2335C4.22554 65.2335 4.25232 65.2344 4.27911 65.2353H4.31714C4.3906 65.2353 4.46321 65.2448 4.53148 65.262C5.03617 65.3208 5.54087 65.4677 6.03606 65.7011C8.43251 66.8288 10.3096 69.6125 10.3096 72.0374V97.9585C10.3096 99.8303 9.1662 101.113 7.44557 101.199C7.39026 101.211 7.33323 101.217 7.27532 101.217H3.50478C3.05108 101.217 2.6743 100.867 2.64319 100.414L2.498 98.3543C1.5612 97.0925 1.02797 95.6657 1.02797 94.404V77.4906L0.233757 66.2213C0.227708 66.1816 0.225133 66.141 0.225133 66.0995C0.225133 65.6224 0.609687 65.2353 1.08673 65.2353H1.09105H4.08294L4.19875 65.2335Z" fill="#030500"/>
<path d="M7.2753 139.981C7.31505 139.981 7.35394 139.976 7.39111 139.966C8.88359 139.905 9.87744 138.788 9.87744 137.155V111.233C9.87744 109 8.0721 106.332 5.85282 105.288C5.38787 105.069 4.91429 104.933 4.44503 104.883C4.40441 104.87 4.36206 104.864 4.31799 104.864H1.09103C0.970904 104.864 0.855967 104.914 0.774732 105.001C0.693496 105.089 0.651154 105.207 0.659796 105.326L1.46005 116.687L1.45918 133.6C1.45918 134.804 1.98982 136.18 2.91884 137.392L3.07353 139.58C3.08995 139.806 3.27747 139.981 3.50476 139.981H7.2753Z" fill="#FFA12E"/>
<path d="M4.19875 105.294C4.16072 105.294 4.12271 105.296 4.08468 105.296C4.08382 105.296 4.08294 105.296 4.08207 105.296H1.09021L1.89046 116.656V133.6C1.89046 134.797 2.46514 136.126 3.34058 137.232L3.50394 139.55H7.27445L7.27361 139.537C8.55091 139.53 9.44536 138.657 9.44536 137.155V111.234C9.44536 109.157 7.74547 106.658 5.66791 105.68C5.19173 105.455 4.73888 105.341 4.31801 105.307L4.31714 105.297H4.25664C4.23763 105.294 4.21776 105.294 4.19875 105.294ZM1.09021 105.296H1.08589H1.09021ZM4.19875 104.43C4.22554 104.43 4.25232 104.431 4.27911 104.431H4.31714C4.3906 104.431 4.46321 104.441 4.53148 104.458C5.03617 104.517 5.54087 104.664 6.03606 104.897C8.43251 106.025 10.3096 108.809 10.3096 111.234V137.155C10.3096 139.026 9.1662 140.309 7.44557 140.395C7.39026 140.407 7.33323 140.414 7.27532 140.414H3.50478C3.05108 140.414 2.6743 140.063 2.64319 139.61L2.498 137.55C1.5612 136.289 1.02797 134.862 1.02797 133.6V116.687L0.233757 105.418C0.227708 105.379 0.225133 105.337 0.225133 105.296C0.225133 104.819 0.609687 104.431 1.08673 104.431H1.09105H4.08294L4.19875 104.43Z" fill="#030500"/>
<path d="M4.04132 139.981C5.6038 139.981 6.65295 138.846 6.65295 137.155V111.233C6.65295 108.999 4.84677 106.332 2.62749 105.287C2.01217 104.997 1.41328 104.851 0.847223 104.851C-0.715263 104.851 -1.76528 105.987 -1.76528 107.678V133.6C-1.76528 135.834 0.0400558 138.501 2.25934 139.545C2.87465 139.835 3.47353 139.981 4.04132 139.981Z" fill="#FBC73F"/>
<path d="M0.846378 105.283C-0.438698 105.283 -1.33315 106.171 -1.33315 107.678V133.599C-1.33315 135.677 0.366742 138.176 2.4443 139.153C3.01467 139.421 3.55566 139.548 4.04134 139.548C5.32642 139.548 6.22088 138.661 6.22088 137.154V111.233C6.22088 109.155 4.52098 106.656 2.44343 105.678C1.87391 105.41 1.33206 105.283 0.846378 105.283ZM0.846378 104.419C1.47725 104.419 2.13922 104.58 2.81157 104.897C5.20802 106.025 7.08508 108.808 7.08508 111.233V137.154C7.08508 139.104 5.86223 140.413 4.04134 140.413C3.41047 140.413 2.74937 140.253 2.07615 139.936C-0.320298 138.809 -2.19736 136.025 -2.19736 133.6V107.679C-2.19736 105.729 -0.974506 104.419 0.846378 104.419Z" fill="#030500"/>
<path d="M29.5045 122.771C29.6583 122.771 29.8156 122.757 29.9763 122.729L51.0725 119.045C51.2497 119.014 51.4294 118.964 51.6083 118.896C51.8408 118.894 52.0257 118.878 52.215 118.845C54.3643 118.47 56.0935 116.273 56.0702 113.949C56.0486 111.835 54.5682 110.241 52.6272 110.241C52.5019 110.241 52.3749 110.247 52.2461 110.26C51.865 108.869 50.8461 107.851 49.5281 107.549C49.1479 104.707 46.9978 102.679 44.3057 102.679C43.9817 102.679 43.6507 102.708 43.3214 102.765C40.8463 103.198 38.6461 105.216 37.7507 107.839C37.6643 107.835 37.577 107.832 37.488 107.832C37.2149 107.832 36.9375 107.856 36.6653 107.904C34.0588 108.359 31.8871 110.849 31.5682 113.668C31.5388 113.671 31.5086 113.677 31.4783 113.682C30.2356 113.899 29.2712 115.117 29.285 116.456C29.285 116.484 29.2858 116.512 29.2876 116.54C27.9238 117.026 26.9145 118.476 26.93 120.012C26.9447 121.585 28.0518 122.771 29.5045 122.771Z" fill="white"/>
<path d="M44.3047 103.112C44.0083 103.112 43.7041 103.138 43.3948 103.192C40.9015 103.628 38.8058 105.741 38.0557 108.302C37.8699 108.278 37.6806 108.265 37.487 108.265C37.2433 108.265 36.9936 108.286 36.7386 108.33C34.1745 108.777 32.1039 111.314 31.9656 114.088C31.9233 114.084 31.8809 114.084 31.8386 114.084C31.7452 114.084 31.6493 114.091 31.5516 114.109C30.5267 114.288 29.7048 115.338 29.7161 116.453C29.7178 116.593 29.7316 116.728 29.7584 116.855C28.4172 117.14 27.3464 118.537 27.3611 120.009C27.3749 121.366 28.3074 122.339 29.5044 122.339C29.634 122.339 29.7671 122.328 29.9019 122.305L50.9989 118.62C51.1795 118.588 51.3558 118.535 51.5252 118.466C51.5468 118.467 51.5676 118.467 51.5892 118.467C51.7698 118.467 51.9539 118.454 52.1414 118.421C54.0945 118.08 55.6596 116.081 55.638 113.955C55.6181 112.039 54.3149 110.674 52.6279 110.674C52.4439 110.674 52.2546 110.691 52.0627 110.724C52.0126 110.733 51.9642 110.748 51.9141 110.758C51.6453 109.203 50.5504 108.105 49.1322 107.918C48.8971 105.085 46.8801 103.112 44.3047 103.112ZM44.3047 102.247C47.1281 102.247 49.4001 104.296 49.9109 107.205C51.1406 107.584 52.1025 108.533 52.5562 109.809C52.5795 109.808 52.6037 109.808 52.6271 109.808C54.8118 109.808 56.478 111.586 56.5022 113.944C56.5281 116.514 54.6778 118.853 52.29 119.271C52.093 119.305 51.8942 119.324 51.6842 119.328C51.5062 119.392 51.3256 119.439 51.1467 119.47L30.0497 123.154C29.8673 123.186 29.6841 123.202 29.5035 123.202C27.807 123.202 26.5142 121.832 26.496 120.016C26.4796 118.408 27.4717 116.885 28.8553 116.248C28.9331 114.869 29.9062 113.639 31.1774 113.304C31.6311 110.396 33.8513 107.956 36.5891 107.477C36.8734 107.428 37.1621 107.401 37.4481 107.399C38.4558 104.777 40.714 102.781 43.2452 102.339C43.5996 102.279 43.9556 102.247 44.3047 102.247Z" fill="#030500"/>
<g opacity="0.29">
<path d="M27.215 60.5918C29.4905 60.069 32.2646 59.4355 34.9246 58.8401L125.649 176.273L125.376 201.633L23.5542 62.8924C24.4582 61.7654 25.7277 60.9332 27.215 60.5918Z" fill="white"/>
</g>
<path d="M61.136 68.3214C68.2709 68.3214 74.0758 56.6727 74.0758 42.3563C74.0758 28.039 68.2709 16.3912 61.136 16.3912C54.0003 16.3912 48.1954 28.0398 48.1954 42.3563C48.1954 56.6727 54.0003 68.3214 61.136 68.3214Z" fill="white"/>
<path d="M61.1361 16.8224C54.2285 16.8224 48.6284 28.2541 48.6284 42.3554C48.6284 56.4567 54.2285 67.8893 61.1361 67.8893C68.0437 67.8893 73.6437 56.4575 73.6437 42.3554C73.6437 28.2533 68.0437 16.8224 61.1361 16.8224ZM61.1361 15.9582C68.6348 15.9582 74.5079 27.5533 74.5079 42.3554C74.5079 57.1575 68.6339 68.7535 61.1361 68.7535C53.6382 68.7535 47.7642 57.1584 47.7642 42.3554C47.7642 27.5524 53.6373 15.9582 61.1361 15.9582Z" fill="#030500"/>
<path d="M62.6035 49.5093L54.1619 55.9027C55.4686 63.0912 58.8468 67.8892 62.6035 67.8892C67.5424 67.8892 71.6068 59.5929 71.6068 49.5093C71.6068 39.4266 67.5424 31.1293 62.6035 31.1293C57.6646 31.1293 53.6002 39.4266 53.6002 49.5093H62.6035Z" fill="#030500"/>
<path d="M48.8617 37.871C48.8988 37.871 48.936 37.8667 48.9723 37.8564L72.5046 31.6401C72.7311 31.5805 72.8685 31.3506 72.814 31.1225C70.6535 22.0353 66.1786 16.3903 61.1351 16.3903C54.937 16.3903 49.5945 25.2251 48.4304 37.3983C48.4166 37.5392 48.4736 37.6775 48.5817 37.7691C48.6612 37.8356 48.7606 37.871 48.8617 37.871Z" fill="#1493FE"/>
<path d="M61.136 16.8224C55.052 16.8224 49.9852 25.6909 48.8626 37.4389L72.3949 31.2227C70.3683 22.6999 66.0888 16.8224 61.136 16.8224ZM61.136 15.9582C66.3904 15.9582 71.026 21.7302 73.2358 31.023C73.3447 31.4793 73.069 31.9391 72.6161 32.0584L49.0838 38.2746C49.0112 38.2936 48.9369 38.3031 48.8634 38.3031C48.6612 38.3031 48.4624 38.2323 48.3043 38.0974C48.0891 37.9142 47.9767 37.6377 48.0035 37.3568C49.2056 24.7575 54.6069 15.9582 61.136 15.9582Z" fill="#030500"/>
<path d="M59.7283 1.9537C59.7283 1.9537 62.0348 3.97421 59.7283 5.63349C57.4226 7.29363 50.9151 10.3244 49.2679 12.0563C47.6207 13.7882 44.7377 10.6848 47.7858 7.00499C50.833 3.3252 56.9282 -0.788427 59.7283 1.9537Z" fill="#030500"/>
<g opacity="0.29">
<path d="M21.6099 86.9917L112.7 214.29L106.561 216.237L21.4751 92.52L21.6099 86.9917Z" fill="white"/>
</g>
<g opacity="0.29">
<path d="M20.8287 119.032L84.7178 223.169L68.6911 228.254L20.2229 143.882L20.8287 119.032Z" fill="white"/>
</g>
<path d="M68.9744 71.0945C68.9744 71.0945 60.3453 57.4098 44.4819 61.5062C44.4819 61.5062 43.6954 63.6373 47.3856 66.0977C47.3856 66.0977 54.5568 65.2058 58.9591 70.1638C63.3614 75.1226 68.9744 71.0945 68.9744 71.0945Z" fill="#A8D8FF"/>
<path d="M68.9744 71.0945C68.9744 71.0945 60.3453 57.4098 44.4819 61.5062L68.9744 71.0945Z" fill="#A8D8FF"/>
<path d="M68.9744 71.0945C68.9744 71.0945 60.3453 57.4098 44.4819 61.5062" stroke="#030500" stroke-miterlimit="10" stroke-linecap="round" stroke-linejoin="round"/>
<path d="M67.7697 101.601C68.7843 101.601 69.8343 101.566 70.8887 101.495C79.7381 100.904 84.4144 97.2274 86.7788 94.2476C89.5218 90.7899 90.3454 86.7774 89.9444 84.3343C89.9116 84.1026 89.0059 78.443 80.2618 77.5684C78.2128 77.3636 76.398 77.3368 75.0455 77.3368C74.4725 77.3368 73.9177 77.342 73.3767 77.3471C72.8668 77.3515 72.369 77.3566 71.8825 77.3566C68.1206 77.3566 64.9386 77.1216 61.1041 74.1591C56.4279 70.545 52.1829 67.554 47.5819 67.554C45.6555 67.554 43.8027 68.0638 41.9135 69.113C39.5516 70.4249 38.0471 72.7107 37.5648 75.7207C36.819 80.3667 38.6027 86.2588 41.8064 89.7295C45.6357 93.8786 52.7645 101.601 67.7697 101.601Z" fill="white"/>
<path d="M47.581 67.9869C45.8249 67.9869 44.0187 68.4389 42.1235 69.4915C35.3179 73.2724 37.5864 84.5209 42.1235 89.4365C46.3676 94.0341 53.3711 101.169 67.7697 101.169C68.7644 101.169 69.7928 101.135 70.8601 101.064C86.7485 100.002 90.2477 88.8497 89.5175 84.4042C89.5175 84.4042 88.725 78.85 80.2177 77.9987C78.3217 77.8095 76.6166 77.7697 75.0446 77.7697C73.9315 77.7697 72.8849 77.7896 71.8816 77.7896C67.9495 77.7896 64.7026 77.4863 60.8396 74.5013C56.3388 71.0229 52.131 67.9869 47.581 67.9869ZM47.581 67.1227C52.3185 67.1227 56.6283 70.1543 61.3685 73.8177C65.0941 76.6964 68.2044 76.9254 71.8825 76.9254C72.3681 76.9254 72.8633 76.9211 73.3723 76.9159C73.9142 76.9107 74.4699 76.9055 75.0437 76.9055C76.4083 76.9055 78.237 76.9323 80.305 77.1388C89.3818 78.0463 90.3376 84.0283 90.3739 84.2824C90.7878 86.8007 89.9435 90.9549 87.1184 94.5155C84.6995 97.5644 79.9256 101.325 70.918 101.926C69.8533 101.997 68.7938 102.033 67.7697 102.033C52.5752 102.033 45.3634 94.2208 41.4891 90.0233C38.2034 86.4636 36.373 80.4202 37.1379 75.6533C37.6426 72.5076 39.2215 70.1154 41.7043 68.7362C43.6583 67.6507 45.5803 67.1227 47.581 67.1227Z" fill="#030500"/>
<path d="M81.1467 78.1154C81.1467 78.1154 83.0376 92.023 77.3701 99.9081" stroke="#030500" stroke-miterlimit="10" stroke-linecap="round" stroke-linejoin="round"/>
<path d="M69.3867 77.7196C69.3867 77.7196 67.221 94.1948 61.5259 100.679" stroke="#030500" stroke-miterlimit="10" stroke-linecap="round" stroke-linejoin="round"/>
<path d="M58.9591 73.0693C58.9591 73.0693 47.6752 79.5941 44.7956 92.1899" stroke="#030500" stroke-miterlimit="10" stroke-linecap="round" stroke-linejoin="round"/>
<path d="M104.045 8.52252C104.045 8.52252 103.777 10.3771 102.348 10.0202C100.92 9.66327 96.8114 6.18052 93.7754 5.64471C90.7395 5.1089 91.2493 0.375644 93.1817 0.0187265C95.1141 -0.339919 103.955 4.52383 104.045 8.52252Z" fill="#030500"/>
<path d="M93.0382 65.6803C85.8918 65.6803 80.0985 54.0554 80.0985 39.7152C80.0985 25.3751 85.8918 13.7501 93.0382 13.7501C100.185 13.7501 105.978 25.3751 105.978 39.7152C105.978 54.0554 100.185 65.6803 93.0382 65.6803Z" fill="white"/>
<path d="M93.0383 14.1813C86.1307 14.1813 80.5306 25.6131 80.5306 39.7152C80.5306 53.8173 86.1307 65.2482 93.0383 65.2482C99.9459 65.2482 105.546 53.8165 105.546 39.7152C105.546 25.6139 99.9459 14.1813 93.0383 14.1813ZM93.0383 13.3171C100.537 13.3171 106.41 24.9122 106.41 39.7152C106.41 54.5182 100.536 66.1124 93.0383 66.1124C85.5396 66.1124 79.6664 54.5173 79.6664 39.7152C79.6664 24.9131 85.5396 13.3171 93.0383 13.3171Z" fill="#030500"/>
<path d="M94.5057 46.8691L86.0641 53.2625C87.3708 60.451 90.749 65.2491 94.5057 65.2491C99.4447 65.2491 103.509 56.9527 103.509 46.87C103.509 36.7873 99.4447 28.4901 94.5057 28.4901C89.5668 28.4901 85.5024 36.7873 85.5024 46.87L94.5057 46.8691Z" fill="#030500"/>
<path d="M104.982 32.5458C105.103 32.5458 105.218 32.4956 105.301 32.4066C105.39 32.3098 105.429 32.1785 105.409 32.0488C103.74 21.1037 98.768 13.7493 93.0383 13.7493C87.6249 13.7493 82.883 20.2775 80.9567 30.3809C80.9333 30.5028 80.9636 30.6281 81.0388 30.7257C81.114 30.8234 81.228 30.8848 81.3507 30.8934C81.3507 30.8934 104.972 32.5458 104.982 32.5458Z" fill="#1493FE"/>
<path d="M93.0383 14.1813C87.7295 14.1813 83.1967 20.936 81.381 30.4613L104.982 32.1136C103.398 21.7241 98.6496 14.1813 93.0383 14.1813ZM93.0383 13.3171C98.9901 13.3171 104.134 20.8185 105.837 31.9831C105.877 32.2424 105.797 32.506 105.619 32.6996C105.454 32.8776 105.224 32.9778 104.983 32.9778C104.963 32.9778 104.944 32.977 104.923 32.9753L81.3214 31.3229C81.0751 31.3056 80.8478 31.1838 80.6965 30.9884C80.5462 30.7931 80.4865 30.5417 80.5323 30.2997C82.4984 19.9836 87.4071 13.3171 93.0383 13.3171Z" fill="#030500"/>
<path d="M4.04132 100.786C5.6038 100.786 6.65295 99.6506 6.65295 97.9593V72.0383C6.65295 69.8043 4.84677 67.1374 2.62749 66.0925C2.01217 65.803 1.41328 65.657 0.847223 65.657C-0.715263 65.657 -1.76528 66.7925 -1.76528 68.4838V94.4057C-1.76528 96.6397 0.0400558 99.3066 2.25934 100.351C2.87465 100.639 3.47353 100.786 4.04132 100.786Z" fill="#FBC73F"/>
<path d="M0.846378 66.0882C-0.438698 66.0882 -1.33315 66.9757 -1.33315 68.4829V94.4039C-1.33315 96.4815 0.366742 98.9808 2.4443 99.9582C3.01467 100.226 3.55567 100.353 4.04221 100.353C5.32729 100.353 6.22175 99.4656 6.22175 97.9584V72.0374C6.22175 69.9598 4.52185 67.4606 2.4443 66.4831C1.87392 66.2152 1.33206 66.0882 0.846378 66.0882ZM0.846378 65.224C1.47725 65.224 2.13922 65.3847 2.81157 65.7019C5.20802 66.8297 7.08508 69.6124 7.08508 72.0383V97.9593C7.08508 99.9089 5.86223 101.218 4.04134 101.218C3.41047 101.218 2.74937 101.057 2.07615 100.741C-0.320298 99.6134 -2.19736 96.8306 -2.19736 94.4048V68.4838C-2.19736 66.5333 -0.974506 65.224 0.846378 65.224Z" fill="#030500"/>
<path d="M-34.8228 213.548C-29.4085 213.548 -24.9769 209.204 -24.8896 203.77C-24.4748 178.094 2.54898 167.757 2.82207 167.656C7.9667 165.744 10.5878 160.024 8.6762 154.879C6.76371 149.734 1.04697 147.112 -4.10198 149.024C-5.73619 149.632 -44.132 164.346 -44.7638 203.451C-44.8528 208.939 -40.4756 213.459 -34.9879 213.548C-34.9317 213.547 -34.8772 213.548 -34.8228 213.548Z" fill="#030500"/>
<path d="M110.483 144.696C112.124 144.696 113.837 144.459 115.574 143.99C127.552 140.757 131.584 124.852 131.75 124.176C131.759 124.142 131.763 124.108 131.763 124.073C131.763 123.29 129.511 118.915 124.086 111.899C118.671 104.896 114.855 96.6293 114.666 94.6425C114.616 94.1179 114.944 93.0221 115.291 91.8623C116.206 88.8039 117.46 84.6151 114.907 82.3534C113.742 81.3224 112.307 80.7538 110.866 80.7538C107.152 80.7538 104.09 84.3083 102.675 90.2609C100.673 98.6843 104.773 106.657 106.102 108.94C104.383 109.098 100.29 109.989 97.0922 114.721C95.7967 114.831 90.1033 115.891 88.3585 126.017C87.1322 133.13 88.7327 136.829 90.2917 138.68C91.391 139.986 92.8653 140.765 94.2334 140.765C94.3959 140.765 94.5531 140.754 94.7044 140.732C96.5987 140.462 97.5061 139.413 97.9192 138.67C99.2544 140.33 103.443 144.696 110.483 144.696Z" fill="white"/>
<path d="M110.863 81.1859C107.901 81.1859 104.667 83.7335 103.092 90.3611C100.788 100.062 106.851 109.341 106.851 109.341C106.851 109.341 106.817 109.339 106.753 109.339C105.996 109.339 100.999 109.557 97.3299 115.141C97.3299 115.141 97.323 115.141 97.3083 115.141C96.8935 115.141 90.6392 115.32 88.782 126.09C86.9551 136.687 91.4714 140.333 94.2308 140.333C94.3726 140.333 94.5091 140.324 94.6405 140.305C97.3299 139.92 97.8104 137.808 97.8104 137.808C97.8104 137.808 101.972 144.265 110.483 144.265C112.003 144.265 113.662 144.06 115.461 143.574C127.331 140.37 131.33 124.074 131.33 124.074C131.33 123.497 129.313 119.367 123.743 112.164C118.172 104.961 114.426 96.701 114.234 94.6839C114.042 92.6668 117.979 85.6555 114.618 82.6783C113.554 81.7338 112.237 81.1859 110.863 81.1859ZM110.863 80.3217C112.41 80.3217 113.947 80.9283 115.191 82.0302C117.951 84.4742 116.652 88.8159 115.703 91.9859C115.383 93.0549 115.052 94.1593 115.095 94.6009C115.251 96.2447 118.716 104.249 124.426 111.634C129.784 118.563 132.195 123.079 132.195 124.073C132.195 124.142 132.186 124.211 132.17 124.279C132.001 124.964 127.908 141.108 115.686 144.407C113.913 144.886 112.163 145.129 110.484 145.129C103.751 145.129 99.6287 141.35 97.9504 139.401C97.3912 140.133 96.419 140.923 94.7632 141.16C94.5912 141.185 94.4123 141.197 94.2308 141.197C92.7141 141.197 91.1569 140.381 89.9591 138.959C88.3413 137.038 86.6759 133.221 87.9308 125.943C89.6687 115.863 95.1322 114.485 96.8537 114.303C99.7765 110.09 103.403 108.915 105.41 108.593C103.828 105.704 100.358 98.1364 102.253 90.1615C103.716 83.9997 106.936 80.3217 110.863 80.3217Z" fill="#030500"/>
<path d="M90.1337 121.299C90.806 124.489 92.3253 128.267 95.7415 127.734C101.536 126.83 102.918 129.663 103.817 131.39C104.715 133.118 108.319 137.126 111.699 135.881C115.08 134.638 118.492 130.147 120.587 131.39C121.673 132.036 121.688 137.047 119.797 141.655C118.484 142.479 117.044 143.145 115.461 143.572C103.591 146.776 97.8104 137.806 97.8104 137.806C97.8104 137.806 97.3299 139.919 94.6405 140.304C91.9511 140.688 86.8609 137.23 88.782 126.089C89.1122 124.175 89.5832 122.602 90.1337 121.299Z" fill="#FFBFE2"/>
<path d="M111.7 110.995C111.7 110.995 109.499 109.851 106.781 109.228C106.112 108.155 100.935 99.4431 103.093 90.3602C104.316 85.2148 106.538 82.5297 108.858 81.5851C107.483 85.7022 105.351 93.62 107.146 98.9271C109.666 106.377 111.7 110.995 111.7 110.995Z" fill="#FFBFE2"/>
<path d="M107.476 119.032C107.476 119.032 103.765 114.974 97.7344 114.578C98.7663 113.148 99.8776 112.105 100.964 111.351C101.66 112.005 102.791 112.708 104.162 113.356C107.963 115.153 108.854 117.936 107.476 119.032Z" fill="#FFBFE2"/>
<path d="M97.9392 138.763C97.9392 138.763 95.9144 131.539 97.4777 127.986" stroke="#030500" stroke-miterlimit="10" stroke-linecap="round" stroke-linejoin="round"/>
<path d="M100.604 127.986C100.604 127.986 97.762 126.85 94.9914 127.986" stroke="#030500" stroke-miterlimit="10" stroke-linecap="round" stroke-linejoin="round"/>
<path d="M96.7396 114.783C96.7396 114.783 103.552 114.167 107.89 119.517" stroke="#030500" stroke-miterlimit="10" stroke-linecap="round" stroke-linejoin="round"/>
<path d="M106.083 108.891C106.083 108.891 112.516 109.47 115.335 115.071" stroke="#030500" stroke-miterlimit="10" stroke-linecap="round" stroke-linejoin="round"/>
<path d="M116.963 141.896C116.963 141.896 126.266 153.729 143.486 153.974C160.705 154.218 170.824 122.31 132.06 106.07L131.802 126.421C131.802 126.421 128.378 122.284 127.008 122.096C125.638 121.908 117.131 139.935 116.963 141.896Z" fill="#030500"/>
<path d="M131.33 124.975C131.33 124.975 138.305 134.843 146.384 133.975" stroke="white" stroke-miterlimit="10" stroke-linecap="round" stroke-linejoin="round"/>
<path d="M118.785 147.687C120.561 147.687 121.954 146.824 122.012 146.788C122.127 146.716 122.202 146.593 122.213 146.458C122.224 146.323 122.171 146.19 122.07 146.099C121.937 145.978 118.807 143.018 122.207 136.275C125.042 130.651 128.274 127.426 131.074 127.426C132.026 127.426 132.952 127.795 133.826 128.523C133.904 128.588 134.002 128.623 134.103 128.623C134.119 128.623 134.136 128.622 134.152 128.62C134.269 128.607 134.376 128.547 134.447 128.453C134.467 128.427 136.427 125.78 134.221 122.918C133.404 121.856 132.017 121.272 130.317 121.272C128.311 121.272 126.009 122.043 123.661 123.503C120.107 125.712 114.675 133.772 113.639 139.68C113.199 142.189 113.531 144.166 114.624 145.554C115.739 146.968 117.139 147.687 118.785 147.687Z" fill="white"/>
<path d="M130.316 121.702C128.507 121.702 126.27 122.387 123.888 123.867C119.436 126.634 110.863 140.084 114.961 145.284C116.166 146.812 117.566 147.254 118.784 147.254C120.455 147.254 121.782 146.421 121.782 146.421C121.782 146.421 118.21 143.238 121.82 136.08C124.552 130.661 127.868 126.994 131.072 126.994C132.1 126.994 133.118 127.372 134.101 128.19C134.101 128.19 135.906 125.813 133.877 123.179C133.137 122.219 131.888 121.702 130.316 121.702ZM130.316 120.838C132.152 120.838 133.66 121.483 134.562 122.652C136.486 125.15 135.552 127.709 134.789 128.713C134.646 128.9 134.433 129.022 134.199 129.049C134.166 129.053 134.133 129.054 134.101 129.054C133.901 129.054 133.704 128.984 133.548 128.854C132.743 128.183 131.933 127.857 131.072 127.857C128.441 127.857 125.35 130.996 122.592 136.468C119.359 142.878 122.24 145.666 122.363 145.781C122.56 145.964 122.664 146.231 122.638 146.498C122.613 146.765 122.468 147.009 122.241 147.152C122.178 147.192 120.682 148.118 118.784 148.118C117.025 148.118 115.468 147.323 114.283 145.818C113.109 144.329 112.749 142.239 113.211 139.603C114.284 133.488 119.728 125.436 123.432 123.133C125.848 121.632 128.229 120.838 130.316 120.838Z" fill="#030500"/>
<path d="M121.782 146.421C121.782 146.421 118.647 148.38 115.943 146.262C116.648 144.441 116.9 141.884 118.066 138.764C123.833 123.321 131.436 126.085 131.329 122.821C131.317 122.426 131.241 122.073 131.124 121.755C132.316 121.905 133.268 122.392 133.876 123.181C135.905 125.815 134.1 128.192 134.1 128.192C130.054 124.823 125.429 128.923 121.819 136.081C118.211 143.238 121.782 146.421 121.782 146.421Z" fill="#FFBFE2"/>
</svg>
