<svg width="247" height="325" viewBox="0 0 247 325" fill="none" xmlns="http://www.w3.org/2000/svg">
<path d="M48.6206 299.637C48.7269 299.637 48.8306 299.598 48.9109 299.524C49.0172 299.428 49.0691 299.285 49.0484 299.143L48.3103 294.041C48.2887 293.893 48.1928 293.767 48.0562 293.707C48.0009 293.682 47.9413 293.67 47.8825 293.67C47.7961 293.67 47.7114 293.695 47.6388 293.745L42.3473 297.365C42.2064 297.461 42.1356 297.632 42.1658 297.799C42.196 297.966 42.3231 298.101 42.4882 298.142L48.5186 299.625C48.5514 299.633 48.586 299.637 48.6206 299.637Z" fill="#030500"/>
<path d="M47.8815 294.102L42.59 297.721L48.6204 299.205L47.8815 294.102ZM47.8815 293.238C47.9991 293.238 48.1175 293.262 48.229 293.311C48.502 293.431 48.6939 293.683 48.7371 293.978L49.4751 299.08C49.5166 299.364 49.4129 299.651 49.2003 299.844C49.0396 299.99 48.8322 300.068 48.6196 300.068C48.5504 300.068 48.4813 300.06 48.413 300.043L42.3826 298.558C42.0516 298.477 41.7992 298.208 41.7388 297.873C41.6783 297.538 41.82 297.198 42.1017 297.005L47.3933 293.387C47.5402 293.29 47.7104 293.238 47.8815 293.238Z" fill="#030500"/>
<path d="M86.5445 276.558C95.2341 276.558 102.489 274.041 108.21 269.022C121.5 257.366 119.763 237.604 119.521 235.39C118.925 229.934 114.019 225.984 108.563 226.589C103.122 227.182 99.1879 232.062 99.7574 237.499C100.049 240.51 99.8118 249.997 95.0656 254.113C90.8871 257.736 83.232 256.842 77.5481 255.454C72.2134 254.153 66.8371 257.419 65.5365 262.751C64.235 268.084 67.5017 273.462 72.8338 274.763C77.7365 275.96 82.3107 276.558 86.5445 276.558Z" fill="#030500"/>
<path d="M42.5901 298.154C42.6489 298.154 42.7085 298.142 42.7639 298.117L46.7738 296.354C46.9103 296.295 47.0062 296.168 47.0278 296.02L52.5994 257.426C52.6201 257.284 52.5683 257.142 52.462 257.045C52.3816 256.972 52.2779 256.933 52.1716 256.933C52.1379 256.933 52.1033 256.937 52.0696 256.945C51.8951 256.988 47.7624 258.005 44.9486 259.881C41.9169 261.902 38.55 283.807 42.1719 297.83C42.2039 297.952 42.2877 298.055 42.4018 298.11C42.4614 298.139 42.5253 298.154 42.5901 298.154Z" fill="white"/>
<path d="M52.1716 257.364C52.1716 257.364 47.9706 258.385 45.187 260.24C42.4043 262.096 38.9717 283.712 42.5892 297.721L46.5992 295.958L52.1716 257.364ZM52.1716 256.5C52.3842 256.5 52.5916 256.578 52.7532 256.724C52.9658 256.917 53.0677 257.203 53.0271 257.488L47.4556 296.082C47.4132 296.378 47.2214 296.63 46.9483 296.75L42.9384 298.513C42.8278 298.562 42.7085 298.587 42.591 298.587C42.4613 298.587 42.3326 298.557 42.2133 298.5C41.9851 298.39 41.8175 298.185 41.7536 297.939C40.1444 291.707 39.7339 283.104 40.6292 274.337C41.2402 268.351 42.6748 260.879 44.7091 259.523C47.5861 257.604 51.7913 256.569 51.9685 256.526C52.035 256.508 52.1042 256.5 52.1716 256.5Z" fill="#030500"/>
<path d="M78.5894 324.14C79.9358 324.14 81.3203 324.079 82.7065 323.961C97.6089 322.685 102.74 317.189 102.951 316.955C103.005 316.894 103.041 316.819 103.056 316.738C103.078 316.608 103.598 313.532 103.498 312.028C103.39 310.413 101.774 308.779 101.705 308.71C101.664 308.669 101.614 308.636 101.558 308.614L69.7978 296.048L59.786 254.617C59.7385 254.421 59.5648 254.286 59.366 254.286C59.3617 254.286 59.3573 254.286 59.3521 254.286C54.5411 254.433 50.787 256.917 48.1935 261.672C41.0966 274.685 44.7073 301.201 49.5451 309.239C55.2446 318.708 65.8311 324.14 78.5894 324.14Z" fill="white"/>
<path d="M59.3642 254.718C39.1003 255.334 43.8353 298.916 49.915 309.016C55.4286 318.176 65.6194 323.707 78.5877 323.707C79.9185 323.707 81.2805 323.648 82.6684 323.529C97.5743 322.255 102.629 316.665 102.629 316.665C102.629 316.665 103.164 313.527 103.065 312.056C102.968 310.585 101.398 309.016 101.398 309.016L69.4296 296.367L59.3642 254.718ZM59.3642 253.854C59.7618 253.854 60.11 254.126 60.2042 254.515L70.1642 295.728L101.716 308.212C101.826 308.255 101.926 308.321 102.009 308.405C102.193 308.589 103.811 310.254 103.928 311.999C104.032 313.554 103.504 316.679 103.481 316.811C103.453 316.973 103.38 317.124 103.27 317.246C103.054 317.484 97.8137 323.103 82.7419 324.392C81.3436 324.511 79.9462 324.572 78.5877 324.572C65.6755 324.572 54.9551 319.065 49.1744 309.462C44.2925 301.352 40.6516 274.597 47.8132 261.465C50.4845 256.566 54.3622 254.005 59.3383 253.854C59.3469 253.854 59.3556 253.854 59.3642 253.854Z" fill="#030500"/>
<path d="M81.5303 319.112C89.7178 319.112 96.2918 316.567 100.044 311.945C102.635 308.754 103.603 304.81 102.769 300.84C100.679 290.887 87.763 290.115 83.8533 290.115C83.5024 290.115 83.2241 290.121 83.034 290.127C82.366 288.704 79.1753 281.519 80.3014 276.19C80.3472 275.976 80.2236 275.761 80.0162 275.691C79.8606 275.638 76.2111 274.358 75.6839 270.031C75.1334 265.505 77.9352 255.671 77.9637 255.572C78.0225 255.368 77.9231 255.15 77.7286 255.061C77.5558 254.981 73.4076 253.113 66.8388 253.113C65.5079 253.113 64.1554 253.192 62.8185 253.347C53.4323 254.441 48.5859 265.134 48.0561 274.607C48.0103 275.419 47.9412 276.334 47.866 277.332C47.0476 288.191 45.3442 310.79 67.7419 317.052C72.6264 318.418 77.2654 319.112 81.5277 319.112H81.5303Z" fill="#FF3682"/>
<path d="M66.8397 253.546C65.5978 253.546 64.2695 253.614 62.8678 253.778C54.0736 254.802 49.0456 264.647 48.4874 274.632C47.9291 284.617 43.8414 309.922 67.8586 316.637C72.9228 318.054 77.4936 318.68 81.5277 318.68C96.6237 318.68 104.233 309.912 102.346 300.93C100.321 291.284 87.6688 290.548 83.8551 290.548C83.168 290.548 82.7687 290.572 82.7687 290.572C82.7687 290.572 78.5825 282.233 79.8788 276.102C79.8788 276.102 75.8231 274.751 75.2553 270.084C74.6875 265.418 77.5481 255.455 77.5481 255.455C77.5481 255.455 73.3886 253.546 66.8397 253.546ZM66.8388 252.682C73.501 252.682 77.7321 254.587 77.9084 254.669C78.2965 254.847 78.497 255.282 78.3786 255.693C78.35 255.79 75.5725 265.541 76.1126 269.98C76.6043 274.021 80.0102 275.233 80.1554 275.283C80.5685 275.425 80.8148 275.854 80.724 276.281C79.6809 281.215 82.4637 287.842 83.3071 289.69C83.4627 289.686 83.6459 289.684 83.8542 289.684C87.8451 289.684 101.035 290.483 103.192 300.752C104.052 304.851 103.054 308.923 100.38 312.217C96.5442 316.942 89.8483 319.545 81.5269 319.545C77.2257 319.545 72.5486 318.846 67.6244 317.47C57.7958 314.721 51.4153 308.56 48.6585 299.154C46.3752 291.364 47.0122 282.901 47.4348 277.301C47.51 276.307 47.5782 275.395 47.624 274.584C48.1642 264.936 53.1325 254.042 62.7675 252.92C64.1218 252.761 65.4915 252.682 66.8388 252.682Z" fill="#030500"/>
<path d="M90.0747 303.758C87.6843 292.376 70.4969 293.4 70.4969 293.4L66.8776 269.052C65.9797 263.012 61.5092 258.325 55.897 256.93C57.8579 255.224 60.1869 254.09 62.8677 253.778C71.6627 252.753 77.5488 255.454 77.5488 255.454C77.5488 255.454 74.6875 265.417 75.2561 270.083C75.8248 274.75 79.8796 276.101 79.8796 276.101C78.5833 282.232 82.7695 290.571 82.7695 290.571C82.7695 290.571 99.9569 289.547 102.347 300.929C104.204 309.772 96.8509 318.404 82.2164 318.668C88.4914 315.364 91.3036 309.61 90.0747 303.758Z" fill="#BA1754"/>
<path d="M84.0028 281.088C84.3208 281.088 84.6241 281.078 84.9067 281.058C86.5107 280.943 87.7145 280.406 88.488 279.461C89.5743 278.134 89.3799 276.504 89.3712 276.435C89.3436 276.218 89.1578 276.058 88.9435 276.058C88.9244 276.058 88.9071 276.059 88.8881 276.061C88.5096 276.109 88.1199 276.133 87.7327 276.133C83.2025 276.133 78.1037 272.82 77.58 266.682C77.0338 260.279 80.3316 256.092 80.3653 256.05C80.4414 255.955 80.4742 255.833 80.4552 255.712C80.4362 255.591 80.367 255.483 80.2651 255.417C78.9083 254.531 77.5134 254.081 76.1229 254.081C74.1612 254.081 72.2988 255.012 70.8789 256.702C68.4851 259.55 67.5777 264.224 68.4479 269.204C70.0925 278.603 79.3404 281.086 84.0019 281.086C84.0028 281.088 84.0028 281.088 84.0028 281.088Z" fill="white"/>
<path d="M76.123 254.516C71.2229 254.516 67.385 260.622 68.874 269.132C70.4495 278.139 79.1771 280.657 84.002 280.657C84.3105 280.657 84.6035 280.647 84.8765 280.628C89.4309 280.303 88.9435 276.492 88.9435 276.492C88.5425 276.542 88.1389 276.567 87.7328 276.567C82.7878 276.567 77.676 272.884 77.1505 266.721C76.581 260.052 80.0292 255.782 80.0292 255.782C78.7053 254.917 77.3795 254.516 76.123 254.516ZM76.123 253.651C77.5991 253.651 79.0725 254.125 80.5019 255.058C80.7068 255.192 80.845 255.406 80.883 255.647C80.9211 255.888 80.8554 256.134 80.7016 256.324C80.6705 256.363 77.4807 260.432 78.0113 266.646C78.5134 272.527 83.3944 275.702 87.7328 275.702C88.1035 275.702 88.4743 275.678 88.8355 275.633C88.8718 275.629 88.9081 275.626 88.9435 275.626C89.3722 275.626 89.7438 275.945 89.7999 276.381C89.8095 276.457 90.0246 278.267 88.8216 279.736C87.9704 280.775 86.6629 281.366 84.937 281.489C84.6398 281.511 84.3243 281.521 84.0011 281.521C79.2151 281.521 69.7158 278.963 68.0219 269.281C67.1154 264.1 68.0366 259.416 70.548 256.426C72.0517 254.637 74.0316 253.651 76.123 253.651Z" fill="#030500"/>
<path d="M83.6624 290.108C83.6624 290.108 73.5823 290.857 66.6193 295.413" stroke="#030500" stroke-miterlimit="10" stroke-linecap="round" stroke-linejoin="round"/>
<path d="M81.4241 301.769C82.5717 302.617 83.6537 304.063 83.0591 305.36C82.7238 306.092 81.9504 306.511 81.2046 306.813C77.6025 308.277 73.4016 308.197 69.8584 306.596C68.3296 305.906 66.7714 304.695 66.6928 303.019C66.6219 301.515 67.843 300.189 69.2534 299.659C72.8926 298.292 78.3967 299.532 81.4241 301.769Z" fill="#FFBFE2"/>
<path d="M188.58 266.312C191.489 266.312 194.373 265.04 196.337 262.594C199.772 258.314 199.088 252.059 194.807 248.623L154.123 215.968C149.843 212.532 143.588 213.217 140.152 217.498C136.716 221.779 137.401 228.034 141.682 231.47L182.366 264.125C184.2 265.597 186.398 266.312 188.58 266.312Z" fill="#030500"/>
<path d="M185.338 267.237C186.037 267.237 186.7 267.073 187.257 266.762C189.217 265.67 199.747 245.899 200.941 243.649C201.001 243.536 201.008 243.402 200.959 243.283C200.921 243.188 199.978 240.948 197.253 240.948C196.393 240.948 195.447 241.18 194.438 241.637C189.756 243.759 179.003 255.84 179.96 261.431C180.692 265.712 183.218 267.237 185.338 267.237Z" fill="white"/>
<path d="M197.253 241.381C196.523 241.381 195.651 241.561 194.616 242.03C190.085 244.084 179.466 255.978 180.386 261.358C181.078 265.399 183.412 266.805 185.338 266.805C185.978 266.805 186.572 266.65 187.047 266.385C188.952 265.323 200.559 243.447 200.559 243.447C200.559 243.447 199.718 241.381 197.253 241.381ZM197.252 240.516C200.265 240.516 201.316 243.014 201.36 243.12C201.456 243.357 201.443 243.625 201.322 243.851C198.572 249.037 189.442 266.039 187.467 267.14C186.846 267.486 186.11 267.669 185.337 267.669C183.041 267.669 180.31 266.049 179.533 261.504C178.527 255.625 189.36 243.463 194.258 241.244C195.324 240.761 196.331 240.516 197.252 240.516Z" fill="#030500"/>
<path d="M189.66 282.818C189.698 282.818 189.737 282.812 189.775 282.802C201.512 279.563 231.792 241.932 238.508 226.686C239.897 223.534 240.279 221.424 239.675 220.239C237.295 215.573 231.634 212.672 224.905 212.672C221.589 212.672 218.18 213.383 215.049 214.729C205.58 218.797 203.256 226.44 200.793 234.532L200.576 235.249C198.505 242.033 194.618 251.101 187.858 255.762C181.542 260.117 178.242 268.209 180.651 273.431C182.962 278.442 189.16 282.571 189.423 282.744C189.494 282.793 189.576 282.818 189.66 282.818Z" fill="#FF3682"/>
<path d="M224.905 213.105C221.74 213.105 218.404 213.759 215.219 215.127C205.661 219.234 203.537 227.021 200.988 235.375C198.438 243.729 194.262 251.871 188.103 256.119C181.943 260.366 178.757 268.296 181.043 273.252C183.329 278.208 189.66 282.385 189.66 282.385C202.912 278.728 242.9 227.516 239.29 220.436C236.883 215.717 231.235 213.105 224.905 213.105ZM224.905 212.241C231.798 212.241 237.605 215.231 240.06 220.044C240.735 221.37 240.368 223.536 238.903 226.861C232.161 242.165 201.711 279.957 189.89 283.219C189.814 283.239 189.737 283.25 189.66 283.25C189.492 283.25 189.326 283.201 189.184 283.107C188.917 282.931 182.62 278.735 180.258 273.615C177.767 268.213 181.134 259.875 187.612 255.408C194.27 250.817 198.111 241.843 200.161 235.124L200.379 234.407C202.871 226.217 205.224 218.481 214.877 214.333C218.063 212.965 221.53 212.241 224.905 212.241Z" fill="#030500"/>
<path d="M192.199 260.035C198.358 255.788 202.536 247.645 205.084 239.292C207.633 230.937 209.757 223.15 219.315 219.043C226.168 216.099 233.699 216.482 238.751 219.537C238.939 219.832 239.13 220.124 239.29 220.438C242.901 227.518 202.912 278.73 189.661 282.386C189.661 282.386 188.795 281.813 187.59 280.845C186.62 279.713 185.74 278.47 185.14 277.169C182.853 272.213 186.04 264.283 192.199 260.035Z" fill="#BA1754"/>
<path d="M192.765 287.009C197.635 287.009 222.724 266.582 227.631 258.623C232.889 250.093 242.999 226.779 243.1 226.545C243.12 226.499 243.132 226.45 243.134 226.399C243.144 226.243 243.339 222.557 240.974 220.308C240.773 220.117 240.569 219.913 240.359 219.702C238.85 218.192 236.971 216.312 233.602 216.312C231.901 216.312 230.035 216.787 227.897 217.763C220.782 221.009 216.285 231.699 212.318 241.131C209.775 247.176 207.373 252.887 204.641 255.812C201.97 258.672 199.45 260.803 197.225 262.684C193.593 265.756 190.456 268.409 188.4 272.838C184.888 280.405 190.057 285.02 192.004 286.757C192.191 286.924 192.447 287.009 192.765 287.009Z" fill="white"/>
<path d="M233.602 216.745C232.104 216.745 230.299 217.142 228.076 218.156C216.604 223.39 212.039 248.524 204.957 256.107C197.875 263.689 192.042 266.022 188.792 273.021C185.543 280.02 189.959 284.353 192.291 286.436C192.398 286.531 192.558 286.577 192.764 286.577C197.078 286.577 222.202 266.605 227.262 258.396C232.565 249.794 242.703 226.373 242.703 226.373C242.703 226.373 242.922 222.757 240.676 220.621C239.084 219.106 237.257 216.745 233.602 216.745ZM233.602 215.881C237.15 215.881 239.181 217.913 240.664 219.397C240.873 219.605 241.074 219.807 241.272 219.995C243.781 222.381 243.576 226.261 243.566 226.425C243.56 226.526 243.536 226.624 243.496 226.717C243.081 227.675 233.272 250.293 227.998 258.85C223.056 266.867 197.701 287.442 192.764 287.442C192.336 287.442 191.984 287.321 191.716 287.082C189.704 285.286 184.361 280.514 188.008 272.658C190.105 268.143 193.275 265.461 196.946 262.356C199.161 260.482 201.671 258.359 204.325 255.517C207.005 252.648 209.392 246.973 211.92 240.963C215.918 231.459 220.449 220.686 227.718 217.37C229.913 216.368 231.838 215.881 233.602 215.881Z" fill="#030500"/>
<path d="M196.722 288.81C202.451 288.81 209.977 285.791 215.449 281.299C224.648 273.745 254.131 241.583 244.493 224.235C244.451 224.122 242.865 220.378 237.634 220.378C236.017 220.378 234.209 220.748 232.259 221.475C224.118 224.516 217.501 240.701 214.322 248.479C213.811 249.728 213.389 250.761 213.064 251.486C210.747 256.655 204.956 263.67 199.594 267.803C196.84 269.926 188.008 277.449 190.027 285.11C190.655 287.496 193.033 288.81 196.722 288.81Z" fill="#030500"/>
<path d="M237.635 220.81C236.199 220.81 234.474 221.109 232.411 221.88C223.157 225.336 215.8 246.438 213.458 251.661C211.117 256.884 205.209 264.019 199.858 268.144C194.506 272.269 188.835 278.89 190.445 285C191.057 287.325 193.469 288.378 196.722 288.378C202.016 288.378 209.54 285.591 215.175 280.965C224.272 273.495 253.591 241.501 244.115 224.444C244.115 224.444 242.635 220.81 237.635 220.81ZM237.635 219.946C242.867 219.946 244.662 223.544 244.892 224.062C254.599 241.659 224.978 274.034 215.724 281.633C210.18 286.184 202.544 289.242 196.722 289.242C192.819 289.242 190.293 287.813 189.609 285.22C187.523 277.302 196.523 269.625 199.33 267.46C204.557 263.431 210.416 256.336 212.67 251.308C212.991 250.593 213.422 249.538 213.922 248.316C217.125 240.481 223.79 224.177 232.108 221.07C234.106 220.324 235.966 219.946 237.635 219.946Z" fill="#030500"/>
<path d="M200.726 291.243C206.4 291.243 215.617 288.208 227.313 273.749C227.395 273.647 227.427 273.513 227.4 273.386C227.372 273.259 227.289 273.151 227.173 273.091L210.106 264.463C210.045 264.432 209.978 264.417 209.911 264.417C209.822 264.417 209.734 264.444 209.658 264.499C208.902 265.044 191.169 277.925 191.15 286.821C191.112 287.005 191.075 287.439 191.386 287.977C192.134 289.273 194.312 290.281 197.857 290.972C198.782 291.152 199.747 291.243 200.726 291.243Z" fill="#030500"/>
<path d="M209.911 264.85C209.911 264.85 191.532 278.096 191.581 286.873C191.581 286.873 190.796 289.156 197.939 290.549C198.823 290.721 199.753 290.812 200.726 290.812C207.612 290.812 216.653 286.241 226.977 273.479L209.911 264.85ZM209.911 263.986C210.044 263.986 210.178 264.016 210.301 264.079L227.367 272.707C227.6 272.825 227.767 273.042 227.822 273.297C227.877 273.552 227.814 273.819 227.65 274.022C215.846 288.614 206.494 291.677 200.726 291.677C199.719 291.677 198.726 291.583 197.774 291.398C194.1 290.683 191.825 289.605 191.011 288.195C190.655 287.58 190.669 287.06 190.717 286.784C190.79 277.67 208.643 264.7 209.405 264.151C209.556 264.04 209.733 263.986 209.911 263.986Z" fill="#030500"/>
<path d="M226.978 273.477L226.5 269.531L208.255 259.74L209.911 264.85L226.734 273.776" fill="white"/>
<path d="M226.978 273.477L226.5 269.531L208.255 259.74L209.911 264.85L226.734 273.776" stroke="#030500" stroke-miterlimit="10" stroke-linecap="round" stroke-linejoin="round"/>
<path d="M149.774 95.5387C149.815 95.5387 149.855 95.5326 149.895 95.5214C150.006 95.4894 150.098 95.4142 150.153 95.314L185.39 30.979C185.454 30.8623 185.461 30.724 185.409 30.6013C185.356 30.4794 185.251 30.3878 185.124 30.3533L155.153 22.3058C155.116 22.2963 155.079 22.2911 155.041 22.2911C155.017 22.2911 154.993 22.2937 154.97 22.2971L49.787 39.7826C49.6056 39.8129 49.463 39.9546 49.4319 40.1361C49.4016 40.3176 49.488 40.4991 49.6496 40.5872L149.566 95.4834C149.631 95.5205 149.702 95.5387 149.774 95.5387Z" fill="#A8D8FF"/>
<path d="M155.041 22.7249L49.858 40.2104L149.774 95.1065L185.011 30.7715L155.041 22.7249ZM155.041 21.8607C155.117 21.8607 155.192 21.8702 155.265 21.8901L185.236 29.9376C185.492 30.0067 185.703 30.1891 185.806 30.4328C185.911 30.6765 185.897 30.9547 185.77 31.1872L150.533 95.5222C150.422 95.7236 150.237 95.8722 150.017 95.937C149.937 95.9604 149.856 95.9716 149.775 95.9716C149.631 95.9716 149.487 95.9353 149.358 95.8645L49.4423 40.9683C49.1199 40.7911 48.9445 40.429 49.0067 40.0661C49.069 39.7031 49.3533 39.4188 49.7171 39.3592L154.9 21.8719C154.946 21.8641 154.994 21.8607 155.041 21.8607Z" fill="#030500"/>
<path d="M61.4936 256.804C61.6327 256.788 61.7563 256.705 61.8237 256.582L150.153 95.3148C150.268 95.1057 150.191 94.8438 149.982 94.7289L50.067 39.8319C50.0031 39.7964 49.9313 39.7783 49.8587 39.7783C49.8354 39.7783 49.8112 39.7809 49.7879 39.7843L49.4863 39.8345C49.2788 39.869 49.1267 40.0471 49.125 40.2571L47.5063 241.244C47.5055 241.351 47.5444 241.455 47.6161 241.535L61.1228 256.662C61.2058 256.755 61.3233 256.807 61.4452 256.807C61.4607 256.807 61.478 256.806 61.4936 256.804Z" fill="#115BDB"/>
<path d="M49.858 40.2104L49.5564 40.2605L47.9377 241.247L61.4444 256.375L149.774 95.1066L49.858 40.2104ZM49.858 39.3462C50.0032 39.3462 50.1458 39.3825 50.2745 39.4534L150.191 94.3495C150.609 94.5794 150.762 95.104 150.533 95.5222L62.2041 256.789C62.0692 257.036 61.8229 257.201 61.5447 257.233C61.5118 257.236 61.479 257.239 61.4461 257.239C61.2016 257.239 60.9665 257.135 60.8014 256.95L47.2947 241.823C47.1522 241.663 47.0735 241.455 47.0752 241.241L48.6939 40.2536C48.6974 39.8336 49.0024 39.4767 49.4164 39.4084L49.718 39.3583C49.7638 39.3505 49.8113 39.3462 49.858 39.3462Z" fill="#030500"/>
<path d="M61.4453 256.807C61.492 256.807 61.5378 256.799 61.5827 256.784L182.813 216.134C182.986 216.076 183.105 215.913 183.107 215.729L185.444 30.7776C185.446 30.6505 185.391 30.5287 185.296 30.4457C185.216 30.3775 185.116 30.3403 185.012 30.3403C184.99 30.3403 184.967 30.342 184.945 30.3455L66.1526 48.9691C65.9461 49.002 65.7923 49.1774 65.7871 49.3857L61.0132 256.364C61.0097 256.505 61.0754 256.638 61.1886 256.722C61.2638 256.778 61.3537 256.807 61.4453 256.807Z" fill="#1493FE"/>
<path d="M185.012 30.7715L66.2191 49.3952L61.4453 256.374L182.675 215.723L185.012 30.7715ZM185.012 29.9073C185.219 29.9073 185.42 29.9816 185.578 30.1182C185.771 30.285 185.88 30.5278 185.876 30.7828L183.54 215.734C183.534 216.102 183.298 216.426 182.95 216.542L61.7201 257.193C61.6302 257.223 61.5378 257.238 61.4453 257.238C61.2629 257.238 61.0832 257.18 60.9328 257.069C60.7064 256.903 60.575 256.635 60.5819 256.354L65.3549 49.3753C65.3644 48.957 65.6721 48.6062 66.0852 48.5413L184.877 29.9177C184.922 29.9108 184.967 29.9073 185.012 29.9073Z" fill="#030500"/>
<path d="M65.9435 49.1255L49.2124 40.0747" stroke="#030500" stroke-miterlimit="10" stroke-linecap="round" stroke-linejoin="round"/>
<path d="M76.581 242.36C77.3008 242.36 78.0199 242.247 78.7199 242.025L172.862 212.153C175.763 211.233 177.733 208.571 177.766 205.528L179.44 50.2075C179.46 48.3158 178.741 46.5338 177.411 45.1917C176.077 43.8426 174.305 43.1003 172.424 43.1003C172.016 43.1003 171.602 43.1366 171.196 43.2074L158.252 45.4769C158.102 45.5028 157.978 45.6056 157.924 45.7473C157.88 45.8632 153.428 57.3225 149.143 59.0363C144.795 60.7759 114.696 67.3577 109.975 67.3577C109.687 67.3577 109.573 67.3344 109.537 67.324C108.625 67.0639 106.7 65.0321 104.838 63.0678C101.758 59.8184 98.5724 56.4592 96.3255 56.4592C96.2132 56.4592 96.1034 56.4678 95.9962 56.4843C93.6707 56.8515 84.4236 58.9516 79.1191 60.171C75.989 60.89 73.7481 63.6373 73.6694 66.8504L69.5653 235.154C69.5187 237.065 70.2247 238.867 71.553 240.227C72.8752 241.583 74.7082 242.36 76.581 242.36Z" fill="#A8D8FF"/>
<path d="M172.424 43.5315C172.045 43.5315 171.659 43.5644 171.27 43.6326L158.326 45.9021C158.326 45.9021 153.814 57.6328 149.302 59.4373C145.005 61.1562 114.992 67.7898 109.974 67.7898C109.724 67.7898 109.538 67.7734 109.417 67.7388C106.954 67.0345 99.8549 56.8904 96.3246 56.8904C96.2348 56.8904 96.1475 56.8974 96.0628 56.9103C93.7891 57.269 84.9266 59.2783 79.2151 60.5918C76.2768 61.2668 74.175 63.8473 74.1007 66.8608L69.9966 235.164C69.9033 238.987 73.0118 241.928 76.581 241.928C77.2404 241.928 77.9153 241.828 78.5885 241.615L172.732 211.743C175.448 210.881 177.303 208.373 177.335 205.525L179.009 50.2041C179.048 46.469 176.013 43.5315 172.424 43.5315ZM172.423 42.6673C174.422 42.6673 176.303 43.4555 177.719 44.8875C179.13 46.3126 179.893 48.2034 179.872 50.2127L178.198 205.533C178.163 208.763 176.071 211.589 172.993 212.566L78.8495 242.438C78.108 242.673 77.3449 242.793 76.5801 242.793C74.5916 242.793 72.6463 241.967 71.2419 240.529C69.8315 239.084 69.0822 237.172 69.1315 235.144L73.2356 66.8401C73.3186 63.429 75.6978 60.5141 79.0198 59.7501C85.5065 58.2594 93.7052 56.4082 95.9271 56.0573C96.055 56.0375 96.189 56.0271 96.3238 56.0271C98.7565 56.0271 102.006 59.4545 105.148 62.7696C106.886 64.6026 108.856 66.6802 109.654 66.9083C109.654 66.9083 109.737 66.9256 109.973 66.9256C114.673 66.9256 144.649 60.368 148.98 58.6353C152.391 57.2707 156.3 48.7574 157.518 45.5918C157.627 45.3083 157.877 45.1035 158.176 45.0508L171.12 42.7814C171.553 42.7053 171.991 42.6673 172.423 42.6673Z" fill="#030500"/>
<path d="M76.581 242.36C77.3009 242.36 78.0199 242.247 78.7199 242.025L172.862 212.153C175.763 211.234 177.733 208.571 177.766 205.528L178.744 114.794C178.745 114.677 178.699 114.564 178.615 114.482C178.534 114.403 178.425 114.358 178.312 114.358C178.309 114.358 178.305 114.358 178.302 114.358C167.365 114.62 155.311 124.436 149.976 133.773C139.041 153.821 126.677 163.982 113.223 163.982C109.888 163.982 106.437 163.349 102.966 162.098C99.6217 160.872 96.1553 159.514 92.8031 158.201C86.0847 155.57 79.1374 152.849 72.1693 150.764C72.1287 150.752 72.0863 150.746 72.0448 150.746C71.9549 150.746 71.8659 150.774 71.7907 150.828C71.6818 150.908 71.6162 151.033 71.6127 151.168L69.5645 235.153C69.5179 237.064 70.2239 238.866 71.5522 240.226C72.8753 241.583 74.7074 242.36 76.581 242.36Z" fill="#039E63"/>
<path d="M178.312 114.79C167.23 115.056 155.373 125.2 150.351 133.987C141.727 149.8 129.517 164.415 113.223 164.415C109.925 164.415 106.457 163.815 102.82 162.506C92.8627 158.855 82.5225 154.313 72.0448 151.179L69.9967 235.163C69.9033 238.988 73.0119 241.928 76.581 241.928C77.2404 241.928 77.9154 241.827 78.5886 241.614L172.732 211.742C175.448 210.88 177.304 208.372 177.335 205.524L178.312 114.79ZM178.312 113.926C178.538 113.926 178.757 114.015 178.919 114.174C179.086 114.34 179.178 114.564 179.176 114.799L178.198 205.532C178.163 208.762 176.071 211.588 172.993 212.565L78.8496 242.437C78.1081 242.673 77.345 242.792 76.5802 242.792C74.5917 242.792 72.6463 241.966 71.242 240.528C69.8316 239.083 69.0823 237.171 69.1316 235.143L71.1797 151.158C71.1867 150.889 71.318 150.638 71.5358 150.48C71.6853 150.372 71.8634 150.315 72.0431 150.315C72.1261 150.315 72.2099 150.327 72.2911 150.351C79.2774 152.442 86.2343 155.166 92.9621 157.801C96.3109 159.113 99.7746 160.47 103.116 161.695C106.534 162.925 109.936 163.551 113.221 163.551C126.505 163.551 138.741 153.465 149.591 133.574C154.995 124.118 167.201 114.193 178.29 113.926C178.298 113.926 178.305 113.926 178.312 113.926Z" fill="#030500"/>
<path d="M147.894 78.5475C148.047 78.5475 148.206 78.5336 148.365 78.506L169.463 74.8219C169.641 74.7908 169.819 74.7406 169.997 74.6732C170.231 74.6706 170.416 74.6551 170.605 74.6223C172.754 74.2463 174.484 72.0495 174.459 69.7257C174.438 67.6109 172.957 66.0173 171.016 66.0173C170.891 66.0173 170.764 66.0243 170.634 66.0372C170.253 64.6458 169.234 63.6278 167.916 63.3253C167.537 60.4838 165.387 58.4555 162.694 58.4555C162.37 58.4555 162.039 58.4849 161.71 58.5419C159.235 58.9749 157.034 60.9928 156.138 63.6157C156.052 63.6114 155.964 63.6088 155.877 63.6088C155.603 63.6088 155.327 63.633 155.054 63.6805C152.448 64.136 150.275 66.6266 149.956 69.4448C149.926 69.4482 149.897 69.4534 149.867 69.4586C148.623 69.6755 147.659 70.8949 147.673 72.2327C147.674 72.2612 147.674 72.2889 147.676 72.3166C146.312 72.8031 145.303 74.2515 145.319 75.7889C145.335 77.3618 146.443 78.5475 147.894 78.5475Z" fill="white"/>
<path d="M162.695 58.8885C162.398 58.8885 162.094 58.9144 161.785 58.9689C159.292 59.4044 157.196 61.5174 156.446 64.0789C156.26 64.0547 156.071 64.0418 155.877 64.0418C155.633 64.0418 155.384 64.0625 155.129 64.1066C152.565 64.5542 150.494 67.0916 150.356 69.8648C150.313 69.8613 150.271 69.8605 150.229 69.8605C150.135 69.8605 150.039 69.8683 149.942 69.8855C148.917 70.0644 148.095 71.1144 148.106 72.2301C148.108 72.3701 148.122 72.5049 148.149 72.632C146.808 72.9172 145.737 74.3137 145.752 75.7855C145.766 77.1423 146.698 78.1162 147.895 78.1162C148.025 78.1162 148.158 78.105 148.293 78.0817L169.39 74.3967C169.571 74.3656 169.747 74.312 169.916 74.2429C169.938 74.2429 169.959 74.2437 169.98 74.2437C170.161 74.2437 170.345 74.2308 170.532 74.1979C172.485 73.8566 174.051 71.8577 174.029 69.7317C174.009 67.8158 172.706 66.4512 171.019 66.4512C170.835 66.4512 170.646 66.4676 170.454 66.5013C170.404 66.5099 170.355 66.5246 170.305 66.535C170.036 64.9803 168.942 63.8819 167.523 63.6952C167.287 60.8623 165.27 58.8885 162.695 58.8885ZM162.695 58.0243C165.518 58.0243 167.79 60.0733 168.301 62.9814C169.531 63.3608 170.493 64.3097 170.946 65.5861C170.97 65.5861 170.994 65.5852 171.017 65.5852C173.202 65.5852 174.868 67.3629 174.892 69.7213C174.919 72.2906 173.068 74.63 170.68 75.0474C170.483 75.082 170.284 75.101 170.074 75.1053C169.896 75.1684 169.716 75.216 169.537 75.2471L148.44 78.9321C148.258 78.964 148.074 78.9796 147.894 78.9796C146.197 78.9796 144.904 77.6098 144.886 75.7933C144.87 74.1858 145.862 72.6631 147.245 72.0262C147.323 70.6469 148.296 69.4163 149.568 69.0818C150.021 66.1738 152.241 63.7332 154.979 63.2545C155.263 63.2052 155.551 63.1784 155.838 63.1767C156.846 60.5547 159.104 58.5584 161.635 58.1168C161.99 58.0554 162.346 58.0243 162.695 58.0243Z" fill="#030500"/>
<path d="M153.927 95.5776C154.314 95.5776 154.714 95.5188 155.116 95.403L168.813 91.4596C171.133 90.7924 173.02 88.3571 173.02 86.0307V72.333C173.02 70.354 171.681 68.9712 169.764 68.9712C169.377 68.9712 168.977 69.03 168.575 69.1458L154.877 73.0892C152.558 73.7563 150.671 76.1925 150.671 78.5181V92.2158C150.671 94.1957 152.01 95.5776 153.927 95.5776Z" fill="#115BDB"/>
<path d="M169.764 69.4042C169.424 69.4042 169.065 69.4552 168.694 69.5615L154.997 73.5049C152.855 74.121 151.103 76.3775 151.103 78.519V92.2167C151.103 93.9874 152.301 95.1463 153.927 95.1463C154.267 95.1463 154.626 95.0953 154.997 94.989L168.694 91.0457C170.836 90.4295 172.587 88.173 172.587 86.0315V72.3338C172.587 70.5631 171.389 69.4042 169.764 69.4042ZM169.763 68.54C169.764 68.54 169.764 68.54 169.763 68.54C171.9 68.54 173.451 70.1353 173.451 72.3338V86.0315C173.451 88.5369 171.424 91.1589 168.933 91.8762L155.235 95.8195C154.794 95.9466 154.354 96.0105 153.926 96.0105C151.789 96.0105 150.238 94.4152 150.238 92.2167V78.519C150.238 76.0136 152.265 73.3916 154.756 72.6743L168.454 68.731C168.896 68.6039 169.336 68.54 169.763 68.54Z" fill="#030500"/>
<path d="M153.926 130.442C154.313 130.442 154.713 130.383 155.115 130.268L168.813 126.324C171.132 125.657 173.019 123.221 173.019 120.895V107.198C173.019 105.219 171.68 103.835 169.763 103.835C169.376 103.835 168.976 103.894 168.573 104.01L154.876 107.953C152.556 108.62 150.669 111.055 150.669 113.382V127.08C150.671 129.06 152.01 130.442 153.926 130.442Z" fill="#115BDB"/>
<path d="M169.764 104.268C169.424 104.268 169.065 104.319 168.694 104.425L154.997 108.369C152.855 108.985 151.103 111.241 151.103 113.383V127.08C151.103 128.851 152.301 130.01 153.927 130.01C154.267 130.01 154.626 129.959 154.997 129.853L168.694 125.909C170.836 125.293 172.587 123.037 172.587 120.895V107.198C172.587 105.428 171.389 104.268 169.764 104.268ZM169.763 103.404C171.9 103.404 173.451 104.999 173.451 107.198V120.895C173.451 123.401 171.424 126.023 168.933 126.74L155.235 130.683C154.794 130.81 154.354 130.874 153.926 130.874C151.789 130.874 150.238 129.279 150.238 127.08V113.383C150.238 110.877 152.265 108.255 154.756 107.538L168.454 103.595C168.896 103.469 169.336 103.404 169.763 103.404Z" fill="#030500"/>
<path d="M153.927 165.307C154.314 165.307 154.714 165.248 155.116 165.132L168.813 161.188C171.133 160.521 173.02 158.086 173.02 155.759V142.062C173.02 140.082 171.681 138.7 169.764 138.7C169.377 138.7 168.977 138.759 168.574 138.874L154.876 142.818C152.557 143.486 150.67 145.921 150.67 148.247V161.943C150.671 163.923 152.01 165.307 153.927 165.307Z" fill="#FFBFE2"/>
<path d="M169.764 139.132C169.424 139.132 169.065 139.183 168.694 139.289L154.997 143.233C152.855 143.849 151.103 146.105 151.103 148.247V161.944C151.103 163.715 152.301 164.874 153.927 164.874C154.267 164.874 154.626 164.823 154.997 164.717L168.694 160.773C170.836 160.157 172.587 157.901 172.587 155.759V142.062C172.587 140.292 171.389 139.132 169.764 139.132ZM169.763 138.268C171.9 138.268 173.451 139.863 173.451 142.062V155.759C173.451 158.265 171.424 160.887 168.933 161.604L155.235 165.547C154.794 165.674 154.354 165.738 153.926 165.738C151.789 165.738 150.238 164.143 150.238 161.944V148.247C150.238 145.741 152.265 143.119 154.756 142.402L168.454 138.459C168.896 138.332 169.336 138.268 169.763 138.268Z" fill="#030500"/>
<path d="M153.927 200.171C154.314 200.171 154.714 200.112 155.116 199.996L168.813 196.053C171.133 195.385 173.02 192.95 173.02 190.624V176.926C173.02 174.947 171.681 173.564 169.764 173.564C169.377 173.564 168.977 173.622 168.575 173.738L154.877 177.681C152.558 178.349 150.671 180.784 150.671 183.11V196.808C150.671 198.787 152.01 200.171 153.927 200.171Z" fill="#115BDB"/>
<path d="M169.764 173.997C169.424 173.997 169.065 174.048 168.694 174.154L154.997 178.097C152.855 178.713 151.103 180.97 151.103 183.111V196.809C151.103 198.58 152.301 199.739 153.927 199.739C154.267 199.739 154.626 199.688 154.997 199.581L168.694 195.638C170.836 195.022 172.587 192.765 172.587 190.624V176.926C172.587 175.155 171.389 173.997 169.764 173.997ZM169.763 173.132C169.764 173.132 169.764 173.132 169.763 173.132C171.9 173.132 173.451 174.728 173.451 176.926V190.624C173.451 193.129 171.424 195.751 168.933 196.468L155.235 200.412C154.794 200.539 154.354 200.603 153.926 200.603C151.789 200.603 150.238 199.008 150.238 196.809V183.111C150.238 180.606 152.265 177.984 154.756 177.267L168.454 173.323C168.896 173.196 169.336 173.132 169.763 173.132Z" fill="#030500"/>
<path d="M121.452 140.935C121.839 140.935 122.239 140.877 122.641 140.761L136.338 136.818C138.658 136.15 140.544 133.714 140.544 131.389V117.691C140.544 115.711 139.206 114.328 137.289 114.328C136.902 114.328 136.502 114.387 136.1 114.503L122.402 118.446C120.083 119.113 118.196 121.549 118.196 123.875V137.573C118.197 139.553 119.535 140.935 121.452 140.935Z" fill="#FBC73F"/>
<path d="M137.289 114.761C136.948 114.761 136.59 114.812 136.219 114.918L122.521 118.862C120.38 119.478 118.628 121.734 118.628 123.876V137.574C118.628 139.344 119.826 140.503 121.452 140.503C121.792 140.503 122.151 140.452 122.521 140.346L136.219 136.403C138.361 135.786 140.112 133.53 140.112 131.389V117.691C140.112 115.921 138.915 114.761 137.289 114.761ZM137.289 113.897C139.425 113.897 140.977 115.492 140.977 117.691V131.389C140.977 133.894 138.95 136.516 136.458 137.233L122.761 141.177C122.32 141.304 121.879 141.368 121.452 141.368C119.315 141.368 117.764 139.772 117.764 137.574V123.876C117.764 121.371 119.791 118.749 122.282 118.031L135.98 114.088C136.421 113.962 136.861 113.897 137.289 113.897Z" fill="#030500"/>
<path d="M121.452 175.799C121.84 175.799 122.24 175.741 122.642 175.625L136.339 171.681C138.659 171.014 140.545 168.579 140.545 166.252V152.555C140.545 150.575 139.207 149.193 137.29 149.193C136.903 149.193 136.503 149.252 136.1 149.368L122.402 153.311C120.083 153.979 118.196 156.414 118.196 158.74V172.438C118.197 174.417 119.535 175.799 121.452 175.799Z" fill="#FF3682"/>
<path d="M137.289 149.626C136.948 149.626 136.59 149.677 136.219 149.783L122.521 153.727C120.38 154.343 118.628 156.599 118.628 158.741V172.438C118.628 174.209 119.826 175.368 121.452 175.368C121.792 175.368 122.151 175.317 122.521 175.211L136.219 171.267C138.361 170.651 140.112 168.395 140.112 166.253V152.556C140.112 150.785 138.915 149.626 137.289 149.626ZM137.289 148.762C139.425 148.762 140.977 150.357 140.977 152.556V166.253C140.977 168.759 138.95 171.381 136.458 172.098L122.761 176.041C122.32 176.168 121.879 176.232 121.452 176.232C119.315 176.232 117.764 174.637 117.764 172.438V158.741C117.764 156.235 119.791 153.613 122.282 152.896L135.98 148.953C136.421 148.826 136.861 148.762 137.289 148.762Z" fill="#030500"/>
<path d="M121.452 210.664C121.84 210.664 122.24 210.605 122.642 210.489L136.339 206.546C138.659 205.878 140.545 203.442 140.545 201.117V187.419C140.545 185.44 139.207 184.056 137.29 184.056C136.903 184.056 136.503 184.115 136.101 184.231L122.403 188.175C120.083 188.842 118.197 191.277 118.197 193.603V207.301C118.197 209.281 119.535 210.664 121.452 210.664Z" fill="white"/>
<path d="M137.289 184.49C136.948 184.49 136.59 184.541 136.219 184.647L122.521 188.59C120.38 189.207 118.628 191.463 118.628 193.605V207.302C118.628 209.073 119.826 210.232 121.452 210.232C121.792 210.232 122.151 210.181 122.521 210.075L136.219 206.131C138.361 205.515 140.112 203.259 140.112 201.117V187.419C140.112 185.65 138.915 184.49 137.289 184.49ZM137.289 183.626C139.425 183.626 140.977 185.221 140.977 187.419V201.117C140.977 203.622 138.95 206.244 136.458 206.962L122.761 210.905C122.32 211.032 121.879 211.096 121.452 211.096C119.315 211.096 117.764 209.501 117.764 207.302V193.605C117.764 191.099 119.791 188.477 122.282 187.76L135.98 183.817C136.421 183.69 136.861 183.626 137.289 183.626Z" fill="#030500"/>
<path d="M88.9763 186.293C89.3634 186.293 89.7644 186.234 90.1672 186.118L103.865 182.175C106.184 181.507 108.07 179.072 108.07 176.746V163.048C108.07 161.069 106.731 159.685 104.815 159.685C104.427 159.685 104.027 159.744 103.625 159.86L89.9269 163.803C87.6074 164.471 85.7217 166.907 85.7217 169.232V182.93C85.7217 184.911 87.0603 186.293 88.9763 186.293Z" fill="#04E892"/>
<path d="M104.815 160.119C104.474 160.119 104.115 160.17 103.745 160.276L90.047 164.22C87.9055 164.836 86.1538 167.092 86.1538 169.234V182.932C86.1538 184.702 87.3516 185.861 88.9772 185.861C89.3177 185.861 89.6763 185.81 90.047 185.704L103.745 181.761C105.886 181.144 107.638 178.888 107.638 176.746V163.049C107.638 161.278 106.44 160.119 104.815 160.119ZM104.815 159.255C106.951 159.255 108.502 160.85 108.502 163.049V176.746C108.502 179.252 106.476 181.874 103.984 182.591L90.2864 186.534C89.8457 186.662 89.405 186.725 88.9772 186.725C86.8409 186.725 85.2896 185.13 85.2896 182.932V169.234C85.2896 166.729 87.3162 164.107 89.8077 163.389L103.505 159.446C103.947 159.319 104.387 159.255 104.815 159.255Z" fill="#030500"/>
<path d="M88.9772 221.157C89.3643 221.157 89.7644 221.098 90.1672 220.983L103.865 217.039C106.184 216.372 108.07 213.937 108.07 211.61V197.913C108.07 195.934 106.731 194.55 104.815 194.55C104.427 194.55 104.027 194.609 103.625 194.725L89.9269 198.668C87.6082 199.335 85.7217 201.77 85.7217 204.097V217.795C85.7217 219.774 87.0603 221.157 88.9772 221.157Z" fill="#F780C2"/>
<path d="M104.815 194.983C104.474 194.983 104.115 195.034 103.745 195.14L90.047 199.084C87.9055 199.7 86.1538 201.956 86.1538 204.098V217.795C86.1538 219.566 87.3516 220.725 88.9772 220.725C89.3177 220.725 89.6763 220.674 90.047 220.568L103.745 216.624C105.886 216.008 107.638 213.752 107.638 211.61V197.913C107.638 196.143 106.44 194.983 104.815 194.983ZM104.815 194.119C106.951 194.119 108.502 195.714 108.502 197.913V211.61C108.502 214.116 106.476 216.738 103.984 217.455L90.2864 221.398C89.8457 221.525 89.405 221.589 88.9772 221.589C86.8409 221.589 85.2896 219.994 85.2896 217.795V204.098C85.2896 201.592 87.3162 198.97 89.8077 198.253L103.505 194.31C103.947 194.183 104.387 194.119 104.815 194.119Z" fill="#030500"/>
<path d="M59.2753 100.786C59.3151 100.786 59.3539 100.781 59.3911 100.771C60.8836 100.709 61.8774 99.5927 61.8774 97.9593V72.0383C61.8774 69.8043 60.0721 67.1374 57.8528 66.0925C57.3879 65.873 56.9143 65.7373 56.445 65.6881C56.4044 65.6751 56.3621 65.6682 56.318 65.6682H53.091C52.9709 65.6682 52.856 65.7183 52.7747 65.8056C52.6935 65.8938 52.6512 66.0113 52.6598 66.1306L53.46 77.4906L53.4592 94.404C53.4592 95.6078 53.9898 96.9836 54.9188 98.1961L55.0735 100.383C55.0899 100.61 55.2775 100.785 55.5048 100.785H59.2753V100.786Z" fill="#FFA12E"/>
<path d="M56.1988 66.0977C56.1607 66.0977 56.1227 66.0995 56.0847 66.0995C56.0838 66.0995 56.0829 66.0995 56.0821 66.0995H53.0902L53.8905 77.4603V94.404C53.8905 95.6009 54.4651 96.93 55.3406 98.0354L55.5039 100.354H59.2745L59.2736 100.341C60.5509 100.334 61.4454 99.4613 61.4454 97.9593V72.0383C61.4454 69.9607 59.7455 67.4615 57.6679 66.484C57.1917 66.2593 56.7389 66.1453 56.318 66.1107L56.3171 66.1012H56.2566C56.2376 66.0986 56.2178 66.0977 56.1988 66.0977ZM53.0902 66.0995H53.0859H53.0902ZM56.1988 65.2335C56.2255 65.2335 56.2523 65.2344 56.2791 65.2353H56.3171C56.3906 65.2353 56.4632 65.2448 56.5315 65.262C57.0362 65.3208 57.5409 65.4677 58.0361 65.7011C60.4325 66.8288 62.3096 69.6125 62.3096 72.0374V97.9585C62.3096 99.8303 61.1662 101.113 59.4456 101.199C59.3903 101.211 59.3332 101.217 59.2753 101.217H55.5048C55.0511 101.217 54.6743 100.867 54.6432 100.414L54.498 98.3543C53.5612 97.0925 53.028 95.6657 53.028 94.404V77.4906L52.2338 66.2213C52.2277 66.1816 52.2251 66.141 52.2251 66.0995C52.2251 65.6224 52.6097 65.2353 53.0867 65.2353H53.0911H56.0829L56.1988 65.2335Z" fill="#030500"/>
<path d="M59.2753 139.981C59.3151 139.981 59.3539 139.976 59.3911 139.966C60.8836 139.904 61.8774 138.788 61.8774 137.155V111.233C61.8774 109 60.0721 106.332 57.8528 105.288C57.3879 105.069 56.9143 104.933 56.445 104.883C56.4044 104.87 56.3621 104.863 56.318 104.863H53.091C52.9709 104.863 52.856 104.914 52.7747 105.001C52.6935 105.089 52.6512 105.207 52.6598 105.326L53.46 116.687L53.4592 133.6C53.4592 134.804 53.9898 136.18 54.9188 137.392L55.0735 139.58C55.0899 139.806 55.2775 139.981 55.5048 139.981H59.2753Z" fill="#FFA12E"/>
<path d="M56.1988 105.294C56.1607 105.294 56.1227 105.296 56.0847 105.296C56.0838 105.296 56.0829 105.296 56.0821 105.296H53.0902L53.8905 116.656V133.6C53.8905 134.797 54.4651 136.126 55.3406 137.231L55.5039 139.55H59.2745L59.2736 139.537C60.5509 139.53 61.4454 138.657 61.4454 137.155V111.234C61.4454 109.157 59.7455 106.658 57.6679 105.68C57.1917 105.455 56.7389 105.341 56.318 105.307L56.3171 105.297H56.2566C56.2376 105.294 56.2178 105.294 56.1988 105.294ZM53.0902 105.296H53.0859H53.0902ZM56.1988 104.43C56.2255 104.43 56.2523 104.43 56.2791 104.431H56.3171C56.3906 104.431 56.4632 104.441 56.5315 104.458C57.0362 104.517 57.5409 104.664 58.0361 104.897C60.4325 106.025 62.3096 108.809 62.3096 111.234V137.155C62.3096 139.026 61.1662 140.309 59.4456 140.395C59.3903 140.407 59.3332 140.413 59.2753 140.413H55.5048C55.0511 140.413 54.6743 140.063 54.6432 139.61L54.498 137.55C53.5612 136.289 53.028 134.862 53.028 133.6V116.687L52.2338 105.418C52.2277 105.379 52.2251 105.337 52.2251 105.296C52.2251 104.819 52.6097 104.431 53.0867 104.431H53.0911H56.0829L56.1988 104.43Z" fill="#030500"/>
<path d="M56.0413 139.981C57.6038 139.981 58.653 138.846 58.653 137.155V111.233C58.653 108.999 56.8468 106.332 54.6275 105.287C54.0122 104.997 53.4133 104.851 52.8472 104.851C51.2847 104.851 50.2347 105.987 50.2347 107.678V133.6C50.2347 135.834 52.0401 138.501 54.2593 139.545C54.8747 139.835 55.4735 139.981 56.0413 139.981Z" fill="#FBC73F"/>
<path d="M52.8464 105.283C51.5613 105.283 50.6668 106.171 50.6668 107.678V133.599C50.6668 135.677 52.3667 138.176 54.4443 139.153C55.0147 139.421 55.5557 139.548 56.0413 139.548C57.3264 139.548 58.2209 138.661 58.2209 137.154V111.233C58.2209 109.155 56.521 106.656 54.4434 105.678C53.8739 105.41 53.3321 105.283 52.8464 105.283ZM52.8464 104.419C53.4772 104.419 54.1392 104.58 54.8116 104.897C57.208 106.025 59.0851 108.808 59.0851 111.234V137.155C59.0851 139.104 57.8622 140.413 56.0413 140.413C55.4105 140.413 54.7494 140.253 54.0761 139.936C51.6797 138.809 49.8026 136.025 49.8026 133.6V107.679C49.8026 105.729 51.0255 104.419 52.8464 104.419Z" fill="#030500"/>
<path d="M81.5045 122.771C81.6583 122.771 81.8156 122.757 81.9763 122.729L103.073 119.045C103.25 119.014 103.429 118.964 103.608 118.896C103.841 118.894 104.026 118.878 104.215 118.845C106.364 118.47 108.094 116.273 108.07 113.949C108.049 111.835 106.568 110.241 104.627 110.241C104.502 110.241 104.375 110.247 104.246 110.26C103.865 108.869 102.846 107.851 101.528 107.549C101.148 104.707 98.9978 102.679 96.3057 102.679C95.9817 102.679 95.6507 102.708 95.3214 102.765C92.8463 103.198 90.6461 105.216 89.7507 107.839C89.6643 107.835 89.577 107.832 89.488 107.832C89.2149 107.832 88.9375 107.856 88.6653 107.904C86.0588 108.359 83.8871 110.849 83.5682 113.668C83.5388 113.671 83.5086 113.677 83.4783 113.682C82.2356 113.899 81.2712 115.117 81.285 116.456C81.285 116.484 81.2858 116.512 81.2876 116.54C79.9238 117.026 78.9145 118.476 78.93 120.012C78.9447 121.585 80.0518 122.771 81.5045 122.771Z" fill="white"/>
<path d="M96.3047 103.112C96.0083 103.112 95.7041 103.138 95.3948 103.192C92.9015 103.628 90.8058 105.741 90.0557 108.302C89.8699 108.278 89.6806 108.265 89.487 108.265C89.2433 108.265 88.9936 108.286 88.7386 108.33C86.1745 108.777 84.1039 111.314 83.9656 114.088C83.9233 114.085 83.8809 114.084 83.8386 114.084C83.7452 114.084 83.6493 114.091 83.5516 114.109C82.5267 114.288 81.7048 115.338 81.7161 116.453C81.7178 116.593 81.7316 116.728 81.7584 116.855C80.4172 117.14 79.3464 118.537 79.3611 120.009C79.3749 121.366 80.3074 122.339 81.5044 122.339C81.634 122.339 81.7671 122.328 81.9019 122.305L102.999 118.62C103.18 118.588 103.356 118.535 103.525 118.466C103.547 118.467 103.568 118.467 103.589 118.467C103.77 118.467 103.954 118.454 104.141 118.421C106.095 118.08 107.66 116.081 107.638 113.955C107.618 112.039 106.315 110.674 104.628 110.674C104.444 110.674 104.255 110.691 104.063 110.725C104.013 110.733 103.964 110.748 103.914 110.758C103.645 109.204 102.55 108.105 101.132 107.918C100.897 105.085 98.8801 103.112 96.3047 103.112ZM96.3047 102.247C99.1281 102.247 101.4 104.297 101.911 107.205C103.141 107.584 104.102 108.533 104.556 109.809C104.58 109.808 104.604 109.808 104.627 109.808C106.812 109.808 108.478 111.586 108.502 113.945C108.528 116.514 106.678 118.853 104.29 119.271C104.093 119.305 103.894 119.324 103.684 119.329C103.506 119.392 103.326 119.439 103.147 119.47L82.0497 123.154C81.8673 123.186 81.6841 123.202 81.5035 123.202C79.807 123.202 78.5142 121.832 78.496 120.016C78.4796 118.408 79.4717 116.885 80.8553 116.249C80.9331 114.869 81.9062 113.639 83.1774 113.304C83.6311 110.396 85.8513 107.956 88.5891 107.477C88.8734 107.428 89.1621 107.401 89.4481 107.399C90.4558 104.777 92.714 102.781 95.2452 102.339C95.5996 102.279 95.9556 102.247 96.3047 102.247Z" fill="#030500"/>
<g opacity="0.29">
<path d="M79.215 60.5919C81.4905 60.069 84.2646 59.4356 86.9246 58.8401L177.649 176.273L177.376 201.633L75.5542 62.8924C76.4582 61.7655 77.7277 60.9332 79.215 60.5919Z" fill="white"/>
</g>
<path d="M113.136 68.3213C120.271 68.3213 126.076 56.6726 126.076 42.3562C126.076 28.0389 120.271 16.3911 113.136 16.3911C106 16.3911 100.195 28.0397 100.195 42.3562C100.195 56.6726 106 68.3213 113.136 68.3213Z" fill="white"/>
<path d="M113.136 16.8223C106.228 16.8223 100.628 28.2541 100.628 42.3553C100.628 56.4566 106.228 67.8892 113.136 67.8892C120.044 67.8892 125.644 56.4575 125.644 42.3553C125.644 28.2532 120.044 16.8223 113.136 16.8223ZM113.136 15.9581C120.635 15.9581 126.508 27.5532 126.508 42.3553C126.508 57.1575 120.634 68.7534 113.136 68.7534C105.638 68.7534 99.7642 57.1583 99.7642 42.3553C99.7642 27.5523 105.637 15.9581 113.136 15.9581Z" fill="#030500"/>
<path d="M114.604 49.5092L106.162 55.9026C107.469 63.0911 110.847 67.8892 114.604 67.8892C119.542 67.8892 123.607 59.5928 123.607 49.5092C123.607 39.4265 119.542 31.1293 114.604 31.1293C109.665 31.1293 105.6 39.4265 105.6 49.5092H114.604Z" fill="#030500"/>
<path d="M100.862 37.871C100.899 37.871 100.936 37.8666 100.972 37.8563L124.505 31.64C124.731 31.5804 124.868 31.3505 124.814 31.1224C122.654 22.0352 118.179 16.3902 113.135 16.3902C106.937 16.3902 101.595 25.225 100.43 37.3982C100.417 37.5391 100.474 37.6774 100.582 37.769C100.661 37.8355 100.761 37.871 100.862 37.871Z" fill="#1493FE"/>
<path d="M113.136 16.8223C107.052 16.8223 101.985 25.6908 100.863 37.4389L124.395 31.2226C122.368 22.6998 118.089 16.8223 113.136 16.8223ZM113.136 15.9581C118.39 15.9581 123.026 21.7302 125.236 31.023C125.345 31.4793 125.069 31.939 124.616 32.0583L101.084 38.2745C101.011 38.2936 100.937 38.3031 100.863 38.3031C100.661 38.3031 100.462 38.2322 100.304 38.0974C100.089 37.9142 99.9767 37.6376 100.004 37.3568C101.206 24.7575 106.607 15.9581 113.136 15.9581Z" fill="#030500"/>
<path d="M111.728 1.95367C111.728 1.95367 114.035 3.97418 111.728 5.63346C109.423 7.2936 102.915 10.3244 101.268 12.0563C99.6207 13.7881 96.7377 10.6848 99.7858 7.00496C102.833 3.32517 108.928 -0.788458 111.728 1.95367Z" fill="#030500"/>
<g opacity="0.29">
<path d="M73.6099 86.9916L164.7 214.29L158.561 216.237L73.4751 92.52L73.6099 86.9916Z" fill="white"/>
</g>
<g opacity="0.29">
<path d="M72.8287 119.032L136.718 223.169L120.691 228.254L72.2229 143.882L72.8287 119.032Z" fill="white"/>
</g>
<path d="M120.974 71.0946C120.974 71.0946 112.345 57.4099 96.4819 61.5062C96.4819 61.5062 95.6954 63.6373 99.3856 66.0977C99.3856 66.0977 106.557 65.2059 110.959 70.1638C115.361 75.1226 120.974 71.0946 120.974 71.0946Z" fill="#A8D8FF"/>
<path d="M120.974 71.0946C120.974 71.0946 112.345 57.4099 96.4819 61.5062L120.974 71.0946Z" fill="#A8D8FF"/>
<path d="M120.974 71.0946C120.974 71.0946 112.345 57.4099 96.4819 61.5062" stroke="#030500" stroke-miterlimit="10" stroke-linecap="round" stroke-linejoin="round"/>
<path d="M119.77 101.601C120.784 101.601 121.834 101.566 122.889 101.495C131.738 100.904 136.414 97.2273 138.779 94.2476C141.522 90.7899 142.345 86.7773 141.944 84.3342C141.912 84.1026 141.006 78.4429 132.262 77.5684C130.213 77.3635 128.398 77.3367 127.045 77.3367C126.473 77.3367 125.918 77.3419 125.377 77.3471C124.867 77.3514 124.369 77.3566 123.882 77.3566C120.121 77.3566 116.939 77.1216 113.104 74.1591C108.428 70.5449 104.183 67.5539 99.5819 67.5539C97.6555 67.5539 95.8027 68.0638 93.9135 69.113C91.5516 70.4248 90.0471 72.7106 89.5648 75.7207C88.819 80.3667 90.6027 86.2588 93.8064 89.7295C97.6357 93.8785 104.764 101.601 119.77 101.601Z" fill="white"/>
<path d="M99.581 67.9869C97.8249 67.9869 96.0187 68.4389 94.1235 69.4915C87.3179 73.2724 89.5864 84.5209 94.1235 89.4365C98.3676 94.0341 105.371 101.169 119.77 101.169C120.764 101.169 121.793 101.135 122.86 101.064C138.749 100.002 142.248 88.8497 141.517 84.4042C141.517 84.4042 140.725 78.85 132.218 77.9987C130.322 77.8095 128.617 77.7697 127.045 77.7697C125.931 77.7697 124.885 77.7896 123.882 77.7896C119.949 77.7896 116.703 77.4863 112.84 74.5013C108.339 71.0229 104.131 67.9869 99.581 67.9869ZM99.581 67.1227C104.319 67.1227 108.628 70.1543 113.369 73.8177C117.094 76.6964 120.204 76.9254 123.882 76.9254C124.368 76.9254 124.863 76.9211 125.372 76.9159C125.914 76.9107 126.47 76.9055 127.044 76.9055C128.408 76.9055 130.237 76.9323 132.305 77.1388C141.382 78.0463 142.338 84.0283 142.374 84.2824C142.788 86.8007 141.944 90.9549 139.118 94.5155C136.7 97.5644 131.926 101.325 122.918 101.926C121.853 101.997 120.794 102.033 119.77 102.033C104.575 102.033 97.3634 94.2208 93.4891 90.0233C90.2034 86.4636 88.373 80.4202 89.1379 75.6533C89.6426 72.5076 91.2215 70.1154 93.7043 68.7362C95.6583 67.6507 97.5803 67.1227 99.581 67.1227Z" fill="#030500"/>
<path d="M133.147 78.1154C133.147 78.1154 135.038 92.0231 129.37 99.9081" stroke="#030500" stroke-miterlimit="10" stroke-linecap="round" stroke-linejoin="round"/>
<path d="M121.387 77.7196C121.387 77.7196 119.221 94.1948 113.526 100.679" stroke="#030500" stroke-miterlimit="10" stroke-linecap="round" stroke-linejoin="round"/>
<path d="M110.959 73.0693C110.959 73.0693 99.6752 79.594 96.7956 92.1899" stroke="#030500" stroke-miterlimit="10" stroke-linecap="round" stroke-linejoin="round"/>
<path d="M156.045 8.52252C156.045 8.52252 155.777 10.3771 154.348 10.0202C152.92 9.66327 148.811 6.18052 145.775 5.64471C142.739 5.1089 143.249 0.375644 145.182 0.0187265C147.114 -0.339919 155.955 4.52383 156.045 8.52252Z" fill="#030500"/>
<path d="M145.038 65.6803C137.892 65.6803 132.098 54.0554 132.098 39.7152C132.098 25.3751 137.892 13.7501 145.038 13.7501C152.185 13.7501 157.978 25.3751 157.978 39.7152C157.978 54.0554 152.185 65.6803 145.038 65.6803Z" fill="white"/>
<path d="M145.038 14.1813C138.131 14.1813 132.531 25.6131 132.531 39.7152C132.531 53.8173 138.131 65.2482 145.038 65.2482C151.946 65.2482 157.546 53.8165 157.546 39.7152C157.546 25.6139 151.946 14.1813 145.038 14.1813ZM145.038 13.3171C152.537 13.3171 158.41 24.9122 158.41 39.7152C158.41 54.5182 152.536 66.1124 145.038 66.1124C137.54 66.1124 131.666 54.5173 131.666 39.7152C131.666 24.9131 137.54 13.3171 145.038 13.3171Z" fill="#030500"/>
<path d="M146.506 46.8691L138.064 53.2625C139.371 60.451 142.749 65.2491 146.506 65.2491C151.445 65.2491 155.509 56.9527 155.509 46.87C155.509 36.7873 151.445 28.49 146.506 28.49C141.567 28.49 137.502 36.7873 137.502 46.87L146.506 46.8691Z" fill="#030500"/>
<path d="M156.982 32.5457C157.103 32.5457 157.218 32.4956 157.301 32.4066C157.39 32.3098 157.429 32.1784 157.409 32.0488C155.74 21.1036 150.768 13.7492 145.038 13.7492C139.625 13.7492 134.883 20.2775 132.957 30.3809C132.933 30.5028 132.964 30.6281 133.039 30.7257C133.114 30.8234 133.228 30.8847 133.351 30.8934C133.351 30.8934 156.972 32.5457 156.982 32.5457Z" fill="#1493FE"/>
<path d="M145.038 14.1813C139.729 14.1813 135.197 20.936 133.381 30.4613L156.982 32.1136C155.398 21.7241 150.65 14.1813 145.038 14.1813ZM145.038 13.3171C150.99 13.3171 156.134 20.8185 157.837 31.9831C157.877 32.2424 157.797 32.506 157.619 32.6996C157.454 32.8776 157.224 32.9778 156.983 32.9778C156.963 32.9778 156.944 32.977 156.923 32.9753L133.321 31.3229C133.075 31.3056 132.848 31.1838 132.697 30.9884C132.546 30.7931 132.487 30.5417 132.532 30.2997C134.498 19.9836 139.407 13.3171 145.038 13.3171Z" fill="#030500"/>
<path d="M56.0413 100.786C57.6038 100.786 58.653 99.6505 58.653 97.9593V72.0383C58.653 69.8043 56.8468 67.1373 54.6275 66.0925C54.0122 65.803 53.4133 65.657 52.8472 65.657C51.2847 65.657 50.2347 66.7925 50.2347 68.4838V94.4057C50.2347 96.6396 52.0401 99.3066 54.2593 100.351C54.8747 100.639 55.4735 100.786 56.0413 100.786Z" fill="#FBC73F"/>
<path d="M52.8464 66.0882C51.5613 66.0882 50.6668 66.9757 50.6668 68.4829V94.4039C50.6668 96.4815 52.3667 98.9808 54.4443 99.9582C55.0147 100.226 55.5557 100.353 56.0422 100.353C57.3273 100.353 58.2217 99.4656 58.2217 97.9584V72.0374C58.2217 69.9598 56.5218 67.4606 54.4443 66.4831C53.8739 66.2152 53.3321 66.0882 52.8464 66.0882ZM52.8464 65.224C53.4772 65.224 54.1392 65.3847 54.8116 65.7019C57.208 66.8297 59.0851 69.6124 59.0851 72.0383V97.9593C59.0851 99.9089 57.8622 101.218 56.0413 101.218C55.4105 101.218 54.7494 101.057 54.0761 100.741C51.6797 99.6134 49.8026 96.8306 49.8026 94.4048V68.4838C49.8026 66.5333 51.0255 65.224 52.8464 65.224Z" fill="#030500"/>
<path d="M17.1772 213.548C22.5915 213.548 27.0231 209.203 27.1104 203.77C27.5252 178.094 54.549 167.757 54.8221 167.656C59.9667 165.744 62.5878 160.024 60.6762 154.879C58.7637 149.734 53.047 147.112 47.898 149.024C46.2638 149.632 7.86796 164.346 7.23623 203.45C7.14721 208.939 11.5244 213.459 17.0121 213.548C17.0683 213.547 17.1228 213.548 17.1772 213.548Z" fill="#030500"/>
<path d="M19.3213 239.966C23.8912 239.966 26.1157 238.039 26.8468 237.234C27.8718 237.878 29.7799 238.46 31.8722 238.46C35.1458 238.46 37.7013 237.028 39.0676 234.428C41.6023 229.604 40.2749 224.784 39.7918 223.382C41.165 222.714 42.1666 221.448 42.7733 219.611C44.2347 215.189 42.9911 208.701 40.9127 205.416C37.9562 200.745 28.0066 199.053 27.584 198.983C27.5615 198.979 27.5373 198.977 27.514 198.977C27.5002 198.977 27.4863 198.978 27.4725 198.979C26.8399 199.04 11.9289 200.524 7.50154 204.197C3.15458 207.805 0.765049 216.947 0.45739 222.287C0.158375 227.463 2.63607 232.839 6.09895 234.523C7.14204 235.031 8.16265 235.288 9.13142 235.288H9.1323C10.2393 235.288 11.0448 234.952 11.5106 234.686C12.2123 236.075 14.5984 239.966 19.3213 239.966Z" fill="white"/>
<path d="M27.514 199.409C27.514 199.409 12.1536 200.898 7.7781 204.529C3.40262 208.16 1.16864 217.47 0.888634 222.31C0.609493 227.151 2.84348 232.458 6.28821 234.133C7.39526 234.672 8.34847 234.855 9.13231 234.855C10.7873 234.855 11.6878 234.041 11.6878 234.041C11.6878 234.041 13.8293 239.534 19.3213 239.534C24.8142 239.534 26.7691 236.648 26.7691 236.648C27.5598 237.308 29.6175 238.029 31.8722 238.029C34.3931 238.029 37.162 237.127 38.6856 234.227C41.5712 228.735 39.2439 223.149 39.2439 223.149C44.5501 221.101 43.4336 210.209 40.5471 205.647C37.6615 201.084 27.514 199.409 27.514 199.409ZM27.514 198.544C27.5615 198.544 27.6082 198.548 27.6549 198.556C28.0852 198.626 38.2198 200.35 41.2782 205.183C43.4094 208.552 44.6841 215.208 43.1847 219.746C42.5979 221.521 41.6144 222.834 40.3146 223.59C40.8712 225.386 41.8797 230.007 39.4513 234.628C38.0063 237.377 35.3152 238.892 31.873 238.892C29.8949 238.892 28.0593 238.381 26.9229 237.773C25.9455 238.727 23.619 240.397 19.3222 240.397C14.6918 240.397 12.2461 236.961 11.3214 235.267C10.7968 235.503 10.0631 235.719 9.13317 235.719C8.09785 235.719 7.01327 235.447 5.91054 234.91C2.24285 233.126 -0.286678 227.688 0.026165 222.26C0.339008 216.842 2.77953 207.554 7.22587 203.864C11.7534 200.107 26.7924 198.61 27.4302 198.548C27.4578 198.546 27.4864 198.544 27.514 198.544Z" fill="#030500"/>
<path d="M1.04234 225.405C2.12605 227.865 3.04039 228.838 4.42917 228.944C6.76339 229.12 6.11351 225.492 7.46946 223.89C8.50477 222.666 10.1589 223.055 10.1589 223.055C10.1589 223.055 8.98093 227.405 10.8156 232.08C12.6512 236.755 17.6118 235.111 16.3345 229.21C15.0572 223.309 19.9451 221.416 20.6728 225.599C21.3996 229.783 23.8652 234.274 26.5511 234.099C29.2371 233.922 28.9294 228.726 28.4887 226.172C28.0488 223.618 30.2404 220.13 35.0653 217.713C39.8884 215.298 38.3147 203.415 38.3138 203.408C39.2325 204.061 40.0138 204.805 40.547 205.646C43.4334 210.209 44.55 221.1 39.2438 223.148C39.2438 223.148 41.5711 228.734 38.6855 234.227C35.7999 239.719 28.4446 238.044 26.7689 236.647C26.7689 236.647 24.8141 239.534 19.3212 239.534C13.8283 239.534 11.6876 234.041 11.6876 234.041C11.6876 234.041 9.73281 235.81 6.28808 234.134C3.57188 232.812 1.61444 229.232 1.04234 225.405Z" fill="#FFBFE2"/>
<path d="M39.7841 223.434C39.7841 223.434 37.9269 220.8 35.0655 218.384" stroke="#030500" stroke-miterlimit="10" stroke-linecap="round" stroke-linejoin="round"/>
<path d="M37.9587 216.509C37.9587 216.509 34.0802 217.463 32.172 220.26" stroke="#030500" stroke-miterlimit="10" stroke-linecap="round" stroke-linejoin="round"/>
<path d="M26.9038 237.365C26.9038 237.365 20.5242 232.106 20.6763 224.719" stroke="#030500" stroke-miterlimit="10" stroke-linecap="round" stroke-linejoin="round"/>
<path d="M11.4958 234.777C11.4958 234.777 8.18853 228.07 10.3966 222.359" stroke="#030500" stroke-miterlimit="10" stroke-linecap="round" stroke-linejoin="round"/>
<path d="M15.1368 208.327C22.4541 208.327 29.8292 204.652 31.2431 200.3C32.0485 197.823 31.3442 196.1 30.6113 195.092C29.9346 194.16 29.0134 193.565 28.6772 193.565C28.5424 193.565 28.4015 193.632 28.3203 193.739C28.2382 193.847 28.2105 193.994 28.2468 194.125C28.1501 194.923 23.8273 199.314 16.5922 199.314H16.4694C9.89714 199.27 8.40984 197.212 8.16959 196.778L8.66217 193.738C8.68982 193.567 8.61379 193.396 8.46774 193.304C8.39688 193.259 8.31649 193.236 8.23526 193.236C8.15057 193.236 8.06588 193.261 7.99328 193.311C4.94695 195.378 3.66187 198.343 4.46817 201.447C5.41102 205.077 9.03552 207.874 13.2831 208.247C13.8889 208.3 14.5129 208.327 15.1368 208.327Z" fill="white"/>
<path d="M8.23435 193.669C1.166 198.464 5.52334 207.13 13.3202 207.816C13.9243 207.869 14.5301 207.895 15.1368 207.895C22.3572 207.895 29.5025 204.259 30.8316 200.167C32.2083 195.931 28.9269 193.997 28.6754 193.997C28.6633 193.997 28.6582 194.001 28.6608 194.01C28.8872 194.833 24.3363 199.747 16.5887 199.747C16.548 199.747 16.5057 199.747 16.4651 199.747C8.64313 199.695 7.72014 196.839 7.72014 196.839L8.23435 193.669ZM8.23435 192.804C8.39595 192.804 8.55755 192.849 8.69929 192.94C8.99052 193.126 9.14263 193.466 9.08732 193.807L8.61893 196.695C8.9551 197.166 10.5591 198.843 16.4711 198.882H16.5895C23.4651 198.882 27.4223 194.874 27.7974 194.024C27.7939 193.828 27.8553 193.633 27.9746 193.477C28.1379 193.262 28.4058 193.132 28.6754 193.132C28.6754 193.132 28.6755 193.132 28.6763 193.132C29.2519 193.132 30.276 193.895 30.9587 194.834C31.7512 195.925 32.516 197.781 31.6544 200.434C30.1887 204.946 22.6243 208.758 15.1368 208.758C14.4998 208.758 13.8638 208.731 13.2442 208.676C8.81855 208.287 5.03679 205.359 4.049 201.555C3.1943 198.264 4.54245 195.128 7.74952 192.953C7.89557 192.854 8.06496 192.804 8.23435 192.804Z" fill="#030500"/>
<path d="M9.69313 203.329C17.1962 203.989 25.1235 200.4 26.9954 196.176C28.1612 195.196 28.7463 194.317 28.6616 194.009C28.6097 193.82 32.2731 195.731 30.8316 200.167C29.391 204.602 21.1162 208.502 13.3202 207.816C9.1867 207.452 6.02111 204.845 5.01085 201.762C6.33309 202.603 7.92323 203.173 9.69313 203.329Z" fill="#FFBFE2"/>
<path d="M162.483 144.696C164.124 144.696 165.837 144.459 167.574 143.99C179.552 140.757 183.584 124.852 183.75 124.176C183.759 124.142 183.763 124.108 183.763 124.073C183.763 123.29 181.511 118.915 176.086 111.899C170.671 104.896 166.855 96.6293 166.666 94.6425C166.616 94.1179 166.944 93.0221 167.291 91.8623C168.206 88.8039 169.46 84.6151 166.907 82.3535C165.742 81.3225 164.307 80.7538 162.866 80.7538C159.152 80.7538 156.09 84.3083 154.675 90.2609C152.673 98.6844 156.773 106.657 158.102 108.94C156.383 109.098 152.29 109.989 149.092 114.721C147.797 114.831 142.103 115.891 140.359 126.017C139.132 133.13 140.733 136.829 142.292 138.68C143.391 139.986 144.865 140.765 146.233 140.765C146.396 140.765 146.553 140.754 146.704 140.732C148.599 140.462 149.506 139.413 149.919 138.67C151.254 140.33 155.443 144.696 162.483 144.696Z" fill="white"/>
<path d="M162.863 81.1859C159.901 81.1859 156.667 83.7336 155.092 90.3612C152.788 100.062 158.851 109.341 158.851 109.341C158.851 109.341 158.817 109.339 158.753 109.339C157.996 109.339 152.999 109.557 149.33 115.141C149.33 115.141 149.323 115.141 149.308 115.141C148.893 115.141 142.639 115.32 140.782 126.09C138.955 136.687 143.471 140.333 146.231 140.333C146.373 140.333 146.509 140.324 146.64 140.305C149.33 139.92 149.81 137.808 149.81 137.808C149.81 137.808 153.972 144.265 162.483 144.265C164.003 144.265 165.662 144.06 167.461 143.574C179.331 140.37 183.33 124.074 183.33 124.074C183.33 123.497 181.313 119.367 175.743 112.164C170.172 104.961 166.426 96.701 166.234 94.684C166.042 92.6669 169.979 85.6556 166.618 82.6784C165.554 81.7338 164.237 81.1859 162.863 81.1859ZM162.863 80.3217C164.41 80.3217 165.947 80.9284 167.191 82.0302C169.951 84.4742 168.652 88.816 167.703 91.9859C167.383 93.0549 167.052 94.1594 167.095 94.601C167.251 96.2447 170.716 104.249 176.426 111.635C181.784 118.563 184.195 123.079 184.195 124.073C184.195 124.142 184.186 124.211 184.17 124.279C184.001 124.964 179.908 141.108 167.686 144.407C165.913 144.886 164.163 145.129 162.484 145.129C155.751 145.129 151.629 141.35 149.95 139.401C149.391 140.133 148.419 140.923 146.763 141.16C146.591 141.185 146.412 141.197 146.231 141.197C144.714 141.197 143.157 140.382 141.959 138.959C140.341 137.038 138.676 133.221 139.931 125.943C141.669 115.863 147.132 114.485 148.854 114.303C151.776 110.09 155.403 108.915 157.41 108.593C155.828 105.704 152.358 98.1365 154.253 90.1616C155.716 83.9998 158.936 80.3217 162.863 80.3217Z" fill="#030500"/>
<path d="M142.134 121.299C142.806 124.49 144.325 128.267 147.741 127.734C153.536 126.83 154.918 129.663 155.817 131.39C156.715 133.118 160.319 137.126 163.699 135.882C167.08 134.638 170.492 130.147 172.587 131.39C173.673 132.036 173.688 137.047 171.797 141.655C170.484 142.479 169.044 143.145 167.461 143.572C155.591 146.776 149.81 137.806 149.81 137.806C149.81 137.806 149.33 139.919 146.64 140.304C143.951 140.688 138.861 137.231 140.782 126.089C141.112 124.175 141.583 122.602 142.134 121.299Z" fill="#FFBFE2"/>
<path d="M163.7 110.995C163.7 110.995 161.499 109.851 158.781 109.229C158.112 108.155 152.935 99.4432 155.093 90.3603C156.316 85.2149 158.538 82.5298 160.858 81.5852C159.483 85.7023 157.351 93.6201 159.146 98.9272C161.666 106.378 163.7 110.995 163.7 110.995Z" fill="#FFBFE2"/>
<path d="M159.476 119.032C159.476 119.032 155.765 114.974 149.734 114.578C150.766 113.149 151.878 112.106 152.964 111.351C153.66 112.005 154.791 112.708 156.162 113.356C159.963 115.153 160.854 117.936 159.476 119.032Z" fill="#FFBFE2"/>
<path d="M149.939 138.763C149.939 138.763 147.914 131.539 149.478 127.986" stroke="#030500" stroke-miterlimit="10" stroke-linecap="round" stroke-linejoin="round"/>
<path d="M152.604 127.986C152.604 127.986 149.762 126.85 146.991 127.986" stroke="#030500" stroke-miterlimit="10" stroke-linecap="round" stroke-linejoin="round"/>
<path d="M148.74 114.783C148.74 114.783 155.552 114.167 159.89 119.517" stroke="#030500" stroke-miterlimit="10" stroke-linecap="round" stroke-linejoin="round"/>
<path d="M158.083 108.891C158.083 108.891 164.516 109.47 167.335 115.071" stroke="#030500" stroke-miterlimit="10" stroke-linecap="round" stroke-linejoin="round"/>
<path d="M168.963 141.896C168.963 141.896 178.266 153.729 195.486 153.974C212.705 154.218 222.824 122.31 184.06 106.07L183.802 126.421C183.802 126.421 180.378 122.284 179.008 122.096C177.638 121.908 169.131 139.935 168.963 141.896Z" fill="#030500"/>
<path d="M183.33 124.975C183.33 124.975 190.305 134.843 198.384 133.975" stroke="white" stroke-miterlimit="10" stroke-linecap="round" stroke-linejoin="round"/>
<path d="M170.785 147.687C172.561 147.687 173.954 146.824 174.012 146.788C174.127 146.716 174.202 146.593 174.213 146.458C174.224 146.323 174.171 146.19 174.07 146.099C173.937 145.978 170.807 143.018 174.207 136.275C177.042 130.651 180.274 127.426 183.074 127.426C184.026 127.426 184.952 127.795 185.826 128.523C185.904 128.588 186.002 128.623 186.103 128.623C186.119 128.623 186.136 128.622 186.152 128.621C186.269 128.608 186.376 128.547 186.447 128.453C186.467 128.427 188.427 125.78 186.221 122.918C185.404 121.856 184.017 121.272 182.317 121.272C180.311 121.272 178.009 122.043 175.661 123.503C172.107 125.712 166.675 133.772 165.639 139.68C165.199 142.189 165.531 144.166 166.624 145.554C167.739 146.968 169.139 147.687 170.785 147.687Z" fill="white"/>
<path d="M182.316 121.703C180.507 121.703 178.27 122.387 175.888 123.867C171.436 126.635 162.863 140.084 166.961 145.284C168.166 146.812 169.566 147.255 170.784 147.255C172.455 147.255 173.782 146.421 173.782 146.421C173.782 146.421 170.21 143.239 173.82 136.08C176.552 130.661 179.868 126.994 183.072 126.994C184.1 126.994 185.118 127.372 186.101 128.19C186.101 128.19 187.906 125.814 185.877 123.179C185.137 122.219 183.888 121.703 182.316 121.703ZM182.316 120.838C184.152 120.838 185.66 121.483 186.562 122.652C188.486 125.15 187.552 127.709 186.789 128.713C186.646 128.901 186.433 129.022 186.199 129.049C186.166 129.053 186.133 129.054 186.101 129.054C185.901 129.054 185.704 128.984 185.548 128.854C184.743 128.183 183.933 127.857 183.072 127.857C180.441 127.857 177.35 130.996 174.592 136.468C171.359 142.878 174.24 145.666 174.363 145.781C174.56 145.964 174.664 146.231 174.638 146.498C174.613 146.765 174.468 147.009 174.241 147.153C174.178 147.192 172.682 148.118 170.784 148.118C169.025 148.118 167.468 147.323 166.283 145.818C165.109 144.329 164.749 142.239 165.211 139.603C166.284 133.488 171.728 125.436 175.432 123.133C177.848 121.632 180.229 120.838 182.316 120.838Z" fill="#030500"/>
<path d="M173.782 146.421C173.782 146.421 170.647 148.38 167.943 146.262C168.648 144.442 168.9 141.884 170.066 138.764C175.833 123.321 183.436 126.085 183.329 122.821C183.317 122.426 183.241 122.073 183.124 121.755C184.316 121.905 185.268 122.392 185.876 123.181C187.905 125.815 186.1 128.192 186.1 128.192C182.054 124.823 177.429 128.923 173.819 136.081C170.211 143.239 173.782 146.421 173.782 146.421Z" fill="#FFBFE2"/>
</svg>
