<svg width="31" height="29" viewBox="0 0 31 29" fill="none" xmlns="http://www.w3.org/2000/svg">
<path d="M15.3741 10.2494C16.1082 9.74118 16.5741 9.24706 16.7717 8.76706C16.9976 8.25882 17.1811 7.76471 17.3223 7.28471L17.5341 6.56471L17.7882 5.71765C17.9858 5.06824 18.1976 4.41882 18.4235 3.76941C18.6494 3.09176 18.9317 2.48471 19.2705 1.94824C19.6094 1.41176 20.0047 0.974118 20.4564 0.635294C20.9082 0.29647 21.4729 0.127058 22.1505 0.127058C22.7717 0.127058 23.4353 0.141176 24.1411 0.169411C24.8753 0.169411 25.5529 0.225882 26.1741 0.338824C27.2188 0.621177 28.0517 1.07294 28.6729 1.69412C29.2941 2.31529 29.6047 3.0353 29.6047 3.85412C29.6047 4.41882 29.4776 4.96941 29.2235 5.50588C28.9976 6.01412 28.687 6.52235 28.2917 7.03059C27.8964 7.53882 27.4588 8.04706 26.9788 8.55529C26.4988 9.03529 26.0047 9.50118 25.4964 9.95294L24.6917 10.7153L21.6847 13.5953C22.0517 14.6965 22.6588 15.6706 23.5058 16.5176C24.3811 17.3647 25.2423 18.1412 26.0894 18.8471C26.5976 19.2706 27.0917 19.7082 27.5717 20.16C28.08 20.5835 28.5176 21.0353 28.8847 21.5153C29.28 21.9671 29.5905 22.4471 29.8164 22.9553C30.0705 23.4635 30.1976 24 30.1976 24.5647C30.1976 25.6941 29.6188 26.6118 28.4611 27.3176C27.3317 28.0235 25.68 28.3765 23.5058 28.3765C22.1505 28.3765 20.9929 28.1788 20.0329 27.7835C19.1011 27.3882 18.4094 26.6118 17.9576 25.4541L17.5341 23.8447C17.3929 23.3082 17.2376 22.7435 17.0682 22.1506C16.927 21.5576 16.7435 21.0353 16.5176 20.5835C16.32 20.1035 16.08 19.7082 15.7976 19.3976C15.5153 19.0871 15.2047 18.9318 14.8658 18.9318C14.4423 18.9318 14.1035 19.2282 13.8494 19.8212C13.6235 20.3859 13.3835 21.0776 13.1294 21.8965C12.8188 22.8847 12.4517 23.9012 12.0282 24.9459C11.6047 25.9624 11.0258 26.7953 10.2917 27.4447H10.3341C9.85408 27.84 9.27525 28.1224 8.59761 28.2918C7.94819 28.4612 7.29878 28.5459 6.64937 28.5459C5.83055 28.5459 5.02584 28.4471 4.23525 28.2494C3.44466 28.0518 2.72466 27.7835 2.07525 27.4447C1.45408 27.0776 0.945841 26.6682 0.550546 26.2165C0.183488 25.7365 -4.17233e-05 25.2282 -4.17233e-05 24.6918C-4.17233e-05 24.0988 0.141135 23.5059 0.423488 22.9129C0.734076 22.32 1.10113 21.7412 1.52466 21.1765C1.97643 20.5835 2.47055 20.0188 3.00702 19.4824C3.57172 18.9176 4.10819 18.3812 4.61643 17.8729L4.87055 17.6188C5.46349 17.0824 6.08466 16.4894 6.73408 15.84C7.38349 15.1906 7.99055 14.5694 8.55525 13.9765L6.81878 12.1976L6.26819 11.6047C5.64702 10.9835 5.02584 10.3624 4.40466 9.74118C3.78349 9.09176 3.2329 8.42824 2.7529 7.75059C2.2729 7.07294 1.87761 6.39529 1.56702 5.71765C1.25643 5.04 1.10113 4.34824 1.10113 3.64235C1.10113 3.04941 1.28466 2.52706 1.65172 2.07529C2.01878 1.62353 2.48466 1.24235 3.04937 0.931766C3.61408 0.621177 4.23525 0.395295 4.9129 0.254117C5.61878 0.0847063 6.29643 7.15256e-07 6.94584 7.15256e-07C7.39761 7.15256e-07 7.87761 0.0423532 8.38584 0.127058C8.89408 0.183529 9.37408 0.310588 9.82584 0.508236C10.2776 0.677648 10.687 0.931765 11.0541 1.27059C11.4494 1.58118 11.76 1.97647 11.9858 2.45647C12.24 2.93647 12.4376 3.38824 12.5788 3.81177C12.72 4.20706 12.8611 4.60235 13.0023 4.99765L13.1717 5.46353C13.3976 6.22588 13.6517 7.01647 13.9341 7.83529C14.2447 8.62588 14.5976 9.41647 14.9929 10.2071L15.3741 10.2494Z" fill="url(#paint0_linear_46_121)"/>
<defs>
<linearGradient id="paint0_linear_46_121" x1="5.22937" y1="1.37647" x2="27.2294" y2="26.8765" gradientUnits="userSpaceOnUse">
<stop stop-color="#FF66C8"/>
<stop offset="1" stop-color="#6BFFFF"/>
</linearGradient>
</defs>
</svg>
